<?xml version="1.0" encoding="utf-8" standalone="no"?>
<!DOCTYPE svg PUBLIC "-//W3C//DTD SVG 1.1//EN"
  "http://www.w3.org/Graphics/SVG/1.1/DTD/svg11.dtd">
<!-- Created with matplotlib (https://matplotlib.org/) -->
<svg height="412.495156pt" version="1.1" viewBox="0 0 414.861156 412.495156" width="414.861156pt" xmlns="http://www.w3.org/2000/svg" xmlns:xlink="http://www.w3.org/1999/xlink">
 <defs>
  <style type="text/css">
*{stroke-linecap:butt;stroke-linejoin:round;}
  </style>
 </defs>
 <g id="figure_1">
  <g id="patch_1">
   <path d="M 0 412.495156 
L 414.861156 412.495156 
L 414.861156 0 
L 0 0 
z
" style="fill:#363636;"/>
  </g>
  <g id="axes_1">
   <g id="patch_2">
    <path d="M 34.89675 178.281563 
L 177.066875 178.281563 
L 177.066875 25.053562 
L 34.89675 25.053562 
z
" style="fill:#363636;"/>
   </g>
   <g id="matplotlib.axis_1">
    <g id="xtick_1"/>
    <g id="xtick_2"/>
    <g id="xtick_3"/>
   </g>
   <g id="matplotlib.axis_2">
    <g id="ytick_1">
     <g id="text_1">
      <!-- 0 -->
      <defs>
       <path d="M 31.78125 66.40625 
Q 24.171875 66.40625 20.328125 58.90625 
Q 16.5 51.421875 16.5 36.375 
Q 16.5 21.390625 20.328125 13.890625 
Q 24.171875 6.390625 31.78125 6.390625 
Q 39.453125 6.390625 43.28125 13.890625 
Q 47.125 21.390625 47.125 36.375 
Q 47.125 51.421875 43.28125 58.90625 
Q 39.453125 66.40625 31.78125 66.40625 
z
M 31.78125 74.21875 
Q 44.046875 74.21875 50.515625 64.515625 
Q 56.984375 54.828125 56.984375 36.375 
Q 56.984375 17.96875 50.515625 8.265625 
Q 44.046875 -1.421875 31.78125 -1.421875 
Q 19.53125 -1.421875 13.0625 8.265625 
Q 6.59375 17.96875 6.59375 36.375 
Q 6.59375 54.828125 13.0625 64.515625 
Q 19.53125 74.21875 31.78125 74.21875 
z
" id="DejaVuSans-48"/>
      </defs>
      <g style="fill:#ffffff;" transform="translate(16.298375 183.714445)scale(0.143 -0.143)">
       <use xlink:href="#DejaVuSans-48"/>
      </g>
     </g>
    </g>
    <g id="ytick_2">
     <g id="text_2">
      <!-- 5 -->
      <defs>
       <path d="M 10.796875 72.90625 
L 49.515625 72.90625 
L 49.515625 64.59375 
L 19.828125 64.59375 
L 19.828125 46.734375 
Q 21.96875 47.46875 24.109375 47.828125 
Q 26.265625 48.1875 28.421875 48.1875 
Q 40.625 48.1875 47.75 41.5 
Q 54.890625 34.8125 54.890625 23.390625 
Q 54.890625 11.625 47.5625 5.09375 
Q 40.234375 -1.421875 26.90625 -1.421875 
Q 22.3125 -1.421875 17.546875 -0.640625 
Q 12.796875 0.140625 7.71875 1.703125 
L 7.71875 11.625 
Q 12.109375 9.234375 16.796875 8.0625 
Q 21.484375 6.890625 26.703125 6.890625 
Q 35.15625 6.890625 40.078125 11.328125 
Q 45.015625 15.765625 45.015625 23.390625 
Q 45.015625 31 40.078125 35.4375 
Q 35.15625 39.890625 26.703125 39.890625 
Q 22.75 39.890625 18.8125 39.015625 
Q 14.890625 38.140625 10.796875 36.28125 
z
" id="DejaVuSans-53"/>
      </defs>
      <g style="fill:#ffffff;" transform="translate(16.298375 145.236723)scale(0.143 -0.143)">
       <use xlink:href="#DejaVuSans-53"/>
      </g>
     </g>
    </g>
    <g id="ytick_3">
     <g id="text_3">
      <!-- 10 -->
      <defs>
       <path d="M 12.40625 8.296875 
L 28.515625 8.296875 
L 28.515625 63.921875 
L 10.984375 60.40625 
L 10.984375 69.390625 
L 28.421875 72.90625 
L 38.28125 72.90625 
L 38.28125 8.296875 
L 54.390625 8.296875 
L 54.390625 0 
L 12.40625 0 
z
" id="DejaVuSans-49"/>
      </defs>
      <g style="fill:#ffffff;" transform="translate(7.2 106.759)scale(0.143 -0.143)">
       <use xlink:href="#DejaVuSans-49"/>
       <use x="63.623047" xlink:href="#DejaVuSans-48"/>
      </g>
     </g>
    </g>
    <g id="ytick_4">
     <g id="text_4">
      <!-- 15 -->
      <g style="fill:#ffffff;" transform="translate(7.2 68.281278)scale(0.143 -0.143)">
       <use xlink:href="#DejaVuSans-49"/>
       <use x="63.623047" xlink:href="#DejaVuSans-53"/>
      </g>
     </g>
    </g>
   </g>
   <g id="patch_3">
    <path clip-path="url(#p323b7a3376)" d="M 55.953937 178.281563 
L 60.746233 178.281563 
L 60.746233 99.121036 
L 55.953937 99.121036 
z
" style="fill:#8dd3c7;opacity:0.4;stroke:#ffffff;stroke-linejoin:miter;"/>
   </g>
   <g id="patch_4">
    <path clip-path="url(#p323b7a3376)" d="M 60.746233 178.281563 
L 65.538529 178.281563 
L 65.538529 158.375879 
L 60.746233 158.375879 
z
" style="fill:#8dd3c7;opacity:0.4;stroke:#ffffff;stroke-linejoin:miter;"/>
   </g>
   <g id="patch_5">
    <path clip-path="url(#p323b7a3376)" d="M 65.538529 178.281563 
L 70.330825 178.281563 
L 70.330825 166.233386 
L 65.538529 166.233386 
z
" style="fill:#8dd3c7;opacity:0.4;stroke:#ffffff;stroke-linejoin:miter;"/>
   </g>
   <g id="patch_6">
    <path clip-path="url(#p323b7a3376)" d="M 70.330825 178.281563 
L 75.123121 178.281563 
L 75.123121 169.653712 
L 70.330825 169.653712 
z
" style="fill:#8dd3c7;opacity:0.4;stroke:#ffffff;stroke-linejoin:miter;"/>
   </g>
   <g id="patch_7">
    <path clip-path="url(#p323b7a3376)" d="M 75.123121 178.281563 
L 79.915417 178.281563 
L 79.915417 171.964743 
L 75.123121 171.964743 
z
" style="fill:#8dd3c7;opacity:0.4;stroke:#ffffff;stroke-linejoin:miter;"/>
   </g>
   <g id="patch_8">
    <path clip-path="url(#p323b7a3376)" d="M 79.915417 178.281563 
L 84.707713 178.281563 
L 84.707713 173.828975 
L 79.915417 173.828975 
z
" style="fill:#8dd3c7;opacity:0.4;stroke:#ffffff;stroke-linejoin:miter;"/>
   </g>
   <g id="patch_9">
    <path clip-path="url(#p323b7a3376)" d="M 84.707713 178.281563 
L 89.500009 178.281563 
L 89.500009 174.090892 
L 84.707713 174.090892 
z
" style="fill:#8dd3c7;opacity:0.4;stroke:#ffffff;stroke-linejoin:miter;"/>
   </g>
   <g id="patch_10">
    <path clip-path="url(#p323b7a3376)" d="M 89.500009 178.281563 
L 94.292305 178.281563 
L 94.292305 175.662394 
L 89.500009 175.662394 
z
" style="fill:#8dd3c7;opacity:0.4;stroke:#ffffff;stroke-linejoin:miter;"/>
   </g>
   <g id="patch_11">
    <path clip-path="url(#p323b7a3376)" d="M 94.292305 178.281563 
L 99.084601 178.281563 
L 99.084601 175.600766 
L 94.292305 175.600766 
z
" style="fill:#8dd3c7;opacity:0.4;stroke:#ffffff;stroke-linejoin:miter;"/>
   </g>
   <g id="patch_12">
    <path clip-path="url(#p323b7a3376)" d="M 99.084601 178.281563 
L 103.876897 178.281563 
L 103.876897 176.432737 
L 99.084601 176.432737 
z
" style="fill:#8dd3c7;opacity:0.4;stroke:#ffffff;stroke-linejoin:miter;"/>
   </g>
   <g id="patch_13">
    <path clip-path="url(#p323b7a3376)" d="M 103.876897 178.281563 
L 108.669193 178.281563 
L 108.669193 176.155414 
L 103.876897 176.155414 
z
" style="fill:#8dd3c7;opacity:0.4;stroke:#ffffff;stroke-linejoin:miter;"/>
   </g>
   <g id="patch_14">
    <path clip-path="url(#p323b7a3376)" d="M 108.669193 178.281563 
L 113.461489 178.281563 
L 113.461489 176.740875 
L 108.669193 176.740875 
z
" style="fill:#8dd3c7;opacity:0.4;stroke:#ffffff;stroke-linejoin:miter;"/>
   </g>
   <g id="patch_15">
    <path clip-path="url(#p323b7a3376)" d="M 113.461489 178.281563 
L 118.253786 178.281563 
L 118.253786 177.064419 
L 113.461489 177.064419 
z
" style="fill:#8dd3c7;opacity:0.4;stroke:#ffffff;stroke-linejoin:miter;"/>
   </g>
   <g id="patch_16">
    <path clip-path="url(#p323b7a3376)" d="M 118.253786 178.281563 
L 123.046082 178.281563 
L 123.046082 176.86413 
L 118.253786 176.86413 
z
" style="fill:#8dd3c7;opacity:0.4;stroke:#ffffff;stroke-linejoin:miter;"/>
   </g>
   <g id="patch_17">
    <path clip-path="url(#p323b7a3376)" d="M 123.046082 178.281563 
L 127.838378 178.281563 
L 127.838378 177.079826 
L 123.046082 177.079826 
z
" style="fill:#8dd3c7;opacity:0.4;stroke:#ffffff;stroke-linejoin:miter;"/>
   </g>
   <g id="patch_18">
    <path clip-path="url(#p323b7a3376)" d="M 127.838378 178.281563 
L 132.630674 178.281563 
L 132.630674 177.295522 
L 127.838378 177.295522 
z
" style="fill:#8dd3c7;opacity:0.4;stroke:#ffffff;stroke-linejoin:miter;"/>
   </g>
   <g id="patch_19">
    <path clip-path="url(#p323b7a3376)" d="M 132.630674 178.281563 
L 137.42297 178.281563 
L 137.42297 177.418777 
L 132.630674 177.418777 
z
" style="fill:#8dd3c7;opacity:0.4;stroke:#ffffff;stroke-linejoin:miter;"/>
   </g>
   <g id="patch_20">
    <path clip-path="url(#p323b7a3376)" d="M 137.42297 178.281563 
L 142.215266 178.281563 
L 142.215266 177.35715 
L 137.42297 177.35715 
z
" style="fill:#8dd3c7;opacity:0.4;stroke:#ffffff;stroke-linejoin:miter;"/>
   </g>
   <g id="patch_21">
    <path clip-path="url(#p323b7a3376)" d="M 142.215266 178.281563 
L 147.007562 178.281563 
L 147.007562 177.233895 
L 142.215266 177.233895 
z
" style="fill:#8dd3c7;opacity:0.4;stroke:#ffffff;stroke-linejoin:miter;"/>
   </g>
   <g id="patch_22">
    <path clip-path="url(#p323b7a3376)" d="M 147.007562 178.281563 
L 151.799858 178.281563 
L 151.799858 177.387964 
L 147.007562 177.387964 
z
" style="fill:#8dd3c7;opacity:0.4;stroke:#ffffff;stroke-linejoin:miter;"/>
   </g>
   <g id="patch_23">
    <path clip-path="url(#p323b7a3376)" d="M 55.953933 178.281563 
L 60.614764 178.281563 
L 60.614764 32.350134 
L 55.953933 32.350134 
z
" style="fill:#feffb3;opacity:0.4;stroke:#ffffff;stroke-linejoin:miter;"/>
   </g>
   <g id="patch_24">
    <path clip-path="url(#p323b7a3376)" d="M 60.614764 178.281563 
L 65.275594 178.281563 
L 65.275594 171.960824 
L 60.614764 171.960824 
z
" style="fill:#feffb3;opacity:0.4;stroke:#ffffff;stroke-linejoin:miter;"/>
   </g>
   <g id="patch_25">
    <path clip-path="url(#p323b7a3376)" d="M 65.275594 178.281563 
L 69.936425 178.281563 
L 69.936425 176.111284 
L 65.275594 176.111284 
z
" style="fill:#feffb3;opacity:0.4;stroke:#ffffff;stroke-linejoin:miter;"/>
   </g>
   <g id="patch_26">
    <path clip-path="url(#p323b7a3376)" d="M 69.936425 178.281563 
L 74.597255 178.281563 
L 74.597255 176.887515 
L 69.936425 176.887515 
z
" style="fill:#feffb3;opacity:0.4;stroke:#ffffff;stroke-linejoin:miter;"/>
   </g>
   <g id="patch_27">
    <path clip-path="url(#p323b7a3376)" d="M 74.597255 178.281563 
L 79.258086 178.281563 
L 79.258086 177.537014 
L 74.597255 177.537014 
z
" style="fill:#feffb3;opacity:0.4;stroke:#ffffff;stroke-linejoin:miter;"/>
   </g>
   <g id="patch_28">
    <path clip-path="url(#p323b7a3376)" d="M 79.258086 178.281563 
L 83.918917 178.281563 
L 83.918917 177.758795 
L 79.258086 177.758795 
z
" style="fill:#feffb3;opacity:0.4;stroke:#ffffff;stroke-linejoin:miter;"/>
   </g>
   <g id="patch_29">
    <path clip-path="url(#p323b7a3376)" d="M 83.918917 178.281563 
L 88.579747 178.281563 
L 88.579747 177.917209 
L 83.918917 177.917209 
z
" style="fill:#feffb3;opacity:0.4;stroke:#ffffff;stroke-linejoin:miter;"/>
   </g>
   <g id="patch_30">
    <path clip-path="url(#p323b7a3376)" d="M 88.579747 178.281563 
L 93.240578 178.281563 
L 93.240578 178.028099 
L 88.579747 178.028099 
z
" style="fill:#feffb3;opacity:0.4;stroke:#ffffff;stroke-linejoin:miter;"/>
   </g>
   <g id="patch_31">
    <path clip-path="url(#p323b7a3376)" d="M 93.240578 178.281563 
L 97.901408 178.281563 
L 97.901408 178.138989 
L 93.240578 178.138989 
z
" style="fill:#feffb3;opacity:0.4;stroke:#ffffff;stroke-linejoin:miter;"/>
   </g>
   <g id="patch_32">
    <path clip-path="url(#p323b7a3376)" d="M 97.901408 178.281563 
L 102.562239 178.281563 
L 102.562239 178.154831 
L 97.901408 178.154831 
z
" style="fill:#feffb3;opacity:0.4;stroke:#ffffff;stroke-linejoin:miter;"/>
   </g>
   <g id="patch_33">
    <path clip-path="url(#p323b7a3376)" d="M 102.562239 178.281563 
L 107.223069 178.281563 
L 107.223069 178.202355 
L 102.562239 178.202355 
z
" style="fill:#feffb3;opacity:0.4;stroke:#ffffff;stroke-linejoin:miter;"/>
   </g>
   <g id="patch_34">
    <path clip-path="url(#p323b7a3376)" d="M 107.223069 178.281563 
L 111.8839 178.281563 
L 111.8839 178.170672 
L 107.223069 178.170672 
z
" style="fill:#feffb3;opacity:0.4;stroke:#ffffff;stroke-linejoin:miter;"/>
   </g>
   <g id="patch_35">
    <path clip-path="url(#p323b7a3376)" d="M 111.8839 178.281563 
L 116.54473 178.281563 
L 116.54473 178.170672 
L 111.8839 178.170672 
z
" style="fill:#feffb3;opacity:0.4;stroke:#ffffff;stroke-linejoin:miter;"/>
   </g>
   <g id="patch_36">
    <path clip-path="url(#p323b7a3376)" d="M 116.54473 178.281563 
L 121.205561 178.281563 
L 121.205561 178.24988 
L 116.54473 178.24988 
z
" style="fill:#feffb3;opacity:0.4;stroke:#ffffff;stroke-linejoin:miter;"/>
   </g>
   <g id="patch_37">
    <path clip-path="url(#p323b7a3376)" d="M 121.205561 178.281563 
L 125.866391 178.281563 
L 125.866391 178.24988 
L 121.205561 178.24988 
z
" style="fill:#feffb3;opacity:0.4;stroke:#ffffff;stroke-linejoin:miter;"/>
   </g>
   <g id="patch_38">
    <path clip-path="url(#p323b7a3376)" d="M 125.866391 178.281563 
L 130.527222 178.281563 
L 130.527222 178.265721 
L 125.866391 178.265721 
z
" style="fill:#feffb3;opacity:0.4;stroke:#ffffff;stroke-linejoin:miter;"/>
   </g>
   <g id="patch_39">
    <path clip-path="url(#p323b7a3376)" d="M 130.527222 178.281563 
L 135.188052 178.281563 
L 135.188052 178.265721 
L 130.527222 178.265721 
z
" style="fill:#feffb3;opacity:0.4;stroke:#ffffff;stroke-linejoin:miter;"/>
   </g>
   <g id="patch_40">
    <path clip-path="url(#p323b7a3376)" d="M 135.188052 178.281563 
L 139.848883 178.281563 
L 139.848883 178.24988 
L 135.188052 178.24988 
z
" style="fill:#feffb3;opacity:0.4;stroke:#ffffff;stroke-linejoin:miter;"/>
   </g>
   <g id="patch_41">
    <path clip-path="url(#p323b7a3376)" d="M 139.848883 178.281563 
L 144.509713 178.281563 
L 144.509713 178.281563 
L 139.848883 178.281563 
z
" style="fill:#feffb3;opacity:0.4;stroke:#ffffff;stroke-linejoin:miter;"/>
   </g>
   <g id="patch_42">
    <path clip-path="url(#p323b7a3376)" d="M 144.509713 178.281563 
L 149.170544 178.281563 
L 149.170544 178.265721 
L 144.509713 178.265721 
z
" style="fill:#feffb3;opacity:0.4;stroke:#ffffff;stroke-linejoin:miter;"/>
   </g>
   <g id="line2d_1">
    <path clip-path="url(#p323b7a3376)" d="M 50.032564 177.964232 
L 50.880507 177.169926 
L 51.728449 175.01428 
L 52.576391 170.215691 
L 53.424333 161.510707 
L 54.272276 148.792621 
L 55.120218 134.172928 
L 55.96816 121.671574 
L 56.816102 115.149156 
L 57.664045 115.973651 
L 58.511987 122.454757 
L 60.207871 139.90843 
L 61.055814 146.771074 
L 61.903756 151.826656 
L 62.751698 155.509678 
L 63.59964 158.295745 
L 64.447583 160.50089 
L 65.295525 162.294963 
L 66.143467 163.780424 
L 67.839352 166.112269 
L 69.535236 167.781158 
L 71.231121 168.885381 
L 76.318774 171.582644 
L 79.710543 172.794993 
L 81.406428 173.485246 
L 83.102312 173.8422 
L 86.494081 174.040165 
L 88.189966 174.470935 
L 90.733792 175.29802 
L 92.429677 175.513694 
L 95.821446 175.6047 
L 100.909099 176.309676 
L 106.844695 176.271012 
L 115.324118 177.029281 
L 122.107656 176.943161 
L 125.499425 177.113442 
L 137.370616 177.387659 
L 140.762385 177.312407 
L 146.697981 177.404466 
L 150.937692 177.619908 
L 154.329461 178.176883 
L 156.873288 178.261065 
L 157.72123 178.204438 
L 157.72123 178.204438 
" style="fill:none;stroke:#8dd3c7;stroke-linecap:round;stroke-width:1.5;"/>
   </g>
   <g id="line2d_2">
    <path clip-path="url(#p323b7a3376)" d="M 55.692412 175.868713 
L 56.430519 178.281563 
L 57.168627 150.625446 
L 57.906734 141.671937 
L 58.644842 155.647555 
L 59.382949 162.28767 
L 60.121057 163.852623 
L 60.859164 168.353762 
L 61.597272 169.314091 
L 62.335379 172.783553 
L 63.073487 173.254545 
L 63.811594 174.11468 
L 64.549702 173.208124 
L 65.287809 174.418208 
L 66.025917 175.918686 
L 66.764025 175.505282 
L 67.502132 175.590431 
L 68.24024 177.047604 
L 68.978347 175.993676 
L 69.716455 177.362982 
L 70.454562 176.405593 
L 71.19267 176.882717 
L 71.930777 177.076338 
L 72.668885 176.591112 
L 73.406992 176.631143 
L 74.1451 177.452212 
L 75.621315 177.710943 
L 76.359422 177.674649 
L 77.09753 177.226048 
L 77.835637 177.608379 
L 78.573745 177.564258 
L 79.311852 177.643146 
L 80.04996 177.886187 
L 81.526175 177.660361 
L 82.264282 177.874638 
L 83.00239 177.636692 
L 83.740497 177.54922 
L 84.478605 177.775334 
L 85.216712 177.731142 
L 85.95482 178.097414 
L 86.692927 177.666451 
L 87.431035 178.25276 
L 88.90725 178.029636 
L 89.645357 178.043519 
L 90.383465 178.179615 
L 91.121572 177.819711 
L 91.85968 178.094283 
L 93.335895 178.020641 
L 94.81211 178.064277 
L 95.550217 178.253306 
L 96.288325 178.134523 
L 97.026432 178.281563 
L 97.76454 178.069453 
L 99.240755 178.254676 
L 100.71697 178.089634 
L 101.455077 178.086858 
L 102.193185 178.281563 
L 102.931292 177.975122 
L 103.6694 178.281563 
L 104.407507 178.085063 
L 106.62183 178.281563 
L 107.359937 177.985862 
L 108.098045 178.281563 
L 108.836153 178.118283 
L 109.57426 178.281563 
L 110.312368 177.960132 
L 111.788583 178.281563 
L 113.264798 178.136735 
L 114.002905 178.093956 
L 114.741013 178.281563 
L 115.47912 177.974321 
L 116.217228 178.281563 
L 116.955335 178.144156 
L 117.693443 178.281563 
L 122.122088 178.257163 
L 122.860195 178.281563 
L 123.598303 178.126471 
L 124.33641 178.281563 
L 125.074518 178.173391 
L 126.550733 178.270513 
L 128.026948 178.217313 
L 129.503163 178.242666 
L 131.717485 178.281563 
L 133.931808 178.117611 
L 134.669915 178.281563 
L 135.408023 178.195522 
L 136.14613 178.281563 
L 136.884238 178.178767 
L 137.622345 178.281563 
L 138.360453 178.034296 
L 139.09856 178.281563 
L 139.836668 178.040471 
L 140.574775 178.281563 
L 141.312883 178.126268 
L 142.05099 178.281563 
L 142.789098 178.10152 
L 143.527205 178.281563 
L 144.265313 178.045932 
L 145.00342 178.281563 
L 145.741528 177.94465 
L 146.479635 178.281563 
L 147.217743 177.748313 
L 147.95585 178.281563 
L 148.693958 177.271553 
L 149.432065 178.281563 
L 149.432065 178.281563 
" style="fill:none;stroke:#feffb3;stroke-linecap:round;stroke-width:1.5;"/>
   </g>
   <g id="patch_43">
    <path d="M 34.89675 178.281563 
L 34.89675 25.053562 
" style="fill:none;stroke:#ffffff;stroke-linecap:square;stroke-linejoin:miter;stroke-width:1.25;"/>
   </g>
   <g id="patch_44">
    <path d="M 34.89675 178.281563 
L 177.066875 178.281563 
" style="fill:none;stroke:#ffffff;stroke-linecap:square;stroke-linejoin:miter;stroke-width:1.25;"/>
   </g>
   <g id="text_5">
    <g id="patch_45">
     <path d="M 70.439281 128.142119 
L 161.078344 128.142119 
Q 165.278344 128.142119 165.278344 123.942119 
L 165.278344 94.715806 
Q 165.278344 90.515806 161.078344 90.515806 
L 70.439281 90.515806 
Q 66.239281 90.515806 66.239281 94.715806 
L 66.239281 123.942119 
Q 66.239281 128.142119 70.439281 128.142119 
z
" style="fill:#f5deb3;opacity:0.5;stroke:#ffffff;stroke-linejoin:miter;"/>
    </g>
    <!-- lss pwr: 0.51 -->
    <defs>
     <path d="M 9.421875 75.984375 
L 18.40625 75.984375 
L 18.40625 0 
L 9.421875 0 
z
" id="DejaVuSans-108"/>
     <path d="M 44.28125 53.078125 
L 44.28125 44.578125 
Q 40.484375 46.53125 36.375 47.5 
Q 32.28125 48.484375 27.875 48.484375 
Q 21.1875 48.484375 17.84375 46.4375 
Q 14.5 44.390625 14.5 40.28125 
Q 14.5 37.15625 16.890625 35.375 
Q 19.28125 33.59375 26.515625 31.984375 
L 29.59375 31.296875 
Q 39.15625 29.25 43.1875 25.515625 
Q 47.21875 21.78125 47.21875 15.09375 
Q 47.21875 7.46875 41.1875 3.015625 
Q 35.15625 -1.421875 24.609375 -1.421875 
Q 20.21875 -1.421875 15.453125 -0.5625 
Q 10.6875 0.296875 5.421875 2 
L 5.421875 11.28125 
Q 10.40625 8.6875 15.234375 7.390625 
Q 20.0625 6.109375 24.8125 6.109375 
Q 31.15625 6.109375 34.5625 8.28125 
Q 37.984375 10.453125 37.984375 14.40625 
Q 37.984375 18.0625 35.515625 20.015625 
Q 33.0625 21.96875 24.703125 23.78125 
L 21.578125 24.515625 
Q 13.234375 26.265625 9.515625 29.90625 
Q 5.8125 33.546875 5.8125 39.890625 
Q 5.8125 47.609375 11.28125 51.796875 
Q 16.75 56 26.8125 56 
Q 31.78125 56 36.171875 55.265625 
Q 40.578125 54.546875 44.28125 53.078125 
z
" id="DejaVuSans-115"/>
     <path id="DejaVuSans-32"/>
     <path d="M 18.109375 8.203125 
L 18.109375 -20.796875 
L 9.078125 -20.796875 
L 9.078125 54.6875 
L 18.109375 54.6875 
L 18.109375 46.390625 
Q 20.953125 51.265625 25.265625 53.625 
Q 29.59375 56 35.59375 56 
Q 45.5625 56 51.78125 48.09375 
Q 58.015625 40.1875 58.015625 27.296875 
Q 58.015625 14.40625 51.78125 6.484375 
Q 45.5625 -1.421875 35.59375 -1.421875 
Q 29.59375 -1.421875 25.265625 0.953125 
Q 20.953125 3.328125 18.109375 8.203125 
z
M 48.6875 27.296875 
Q 48.6875 37.203125 44.609375 42.84375 
Q 40.53125 48.484375 33.40625 48.484375 
Q 26.265625 48.484375 22.1875 42.84375 
Q 18.109375 37.203125 18.109375 27.296875 
Q 18.109375 17.390625 22.1875 11.75 
Q 26.265625 6.109375 33.40625 6.109375 
Q 40.53125 6.109375 44.609375 11.75 
Q 48.6875 17.390625 48.6875 27.296875 
z
" id="DejaVuSans-112"/>
     <path d="M 4.203125 54.6875 
L 13.1875 54.6875 
L 24.421875 12.015625 
L 35.59375 54.6875 
L 46.1875 54.6875 
L 57.421875 12.015625 
L 68.609375 54.6875 
L 77.59375 54.6875 
L 63.28125 0 
L 52.6875 0 
L 40.921875 44.828125 
L 29.109375 0 
L 18.5 0 
z
" id="DejaVuSans-119"/>
     <path d="M 41.109375 46.296875 
Q 39.59375 47.171875 37.8125 47.578125 
Q 36.03125 48 33.890625 48 
Q 26.265625 48 22.1875 43.046875 
Q 18.109375 38.09375 18.109375 28.8125 
L 18.109375 0 
L 9.078125 0 
L 9.078125 54.6875 
L 18.109375 54.6875 
L 18.109375 46.1875 
Q 20.953125 51.171875 25.484375 53.578125 
Q 30.03125 56 36.53125 56 
Q 37.453125 56 38.578125 55.875 
Q 39.703125 55.765625 41.0625 55.515625 
z
" id="DejaVuSans-114"/>
     <path d="M 11.71875 12.40625 
L 22.015625 12.40625 
L 22.015625 0 
L 11.71875 0 
z
M 11.71875 51.703125 
L 22.015625 51.703125 
L 22.015625 39.3125 
L 11.71875 39.3125 
z
" id="DejaVuSans-58"/>
     <path d="M 10.6875 12.40625 
L 21 12.40625 
L 21 0 
L 10.6875 0 
z
" id="DejaVuSans-46"/>
    </defs>
    <g style="fill:#ffffff;" transform="translate(70.439281 105.353619)scale(0.14 -0.14)">
     <use xlink:href="#DejaVuSans-108"/>
     <use x="27.783203" xlink:href="#DejaVuSans-115"/>
     <use x="79.882812" xlink:href="#DejaVuSans-115"/>
     <use x="131.982422" xlink:href="#DejaVuSans-32"/>
     <use x="163.769531" xlink:href="#DejaVuSans-112"/>
     <use x="227.246094" xlink:href="#DejaVuSans-119"/>
     <use x="309.033203" xlink:href="#DejaVuSans-114"/>
     <use x="350.130859" xlink:href="#DejaVuSans-58"/>
     <use x="383.822266" xlink:href="#DejaVuSans-32"/>
     <use x="415.609375" xlink:href="#DejaVuSans-48"/>
     <use x="479.232422" xlink:href="#DejaVuSans-46"/>
     <use x="511.019531" xlink:href="#DejaVuSans-53"/>
     <use x="574.642578" xlink:href="#DejaVuSans-49"/>
    </g>
    <!-- lsa pwr: 0.92 -->
    <defs>
     <path d="M 34.28125 27.484375 
Q 23.390625 27.484375 19.1875 25 
Q 14.984375 22.515625 14.984375 16.5 
Q 14.984375 11.71875 18.140625 8.90625 
Q 21.296875 6.109375 26.703125 6.109375 
Q 34.1875 6.109375 38.703125 11.40625 
Q 43.21875 16.703125 43.21875 25.484375 
L 43.21875 27.484375 
z
M 52.203125 31.203125 
L 52.203125 0 
L 43.21875 0 
L 43.21875 8.296875 
Q 40.140625 3.328125 35.546875 0.953125 
Q 30.953125 -1.421875 24.3125 -1.421875 
Q 15.921875 -1.421875 10.953125 3.296875 
Q 6 8.015625 6 15.921875 
Q 6 25.140625 12.171875 29.828125 
Q 18.359375 34.515625 30.609375 34.515625 
L 43.21875 34.515625 
L 43.21875 35.40625 
Q 43.21875 41.609375 39.140625 45 
Q 35.0625 48.390625 27.6875 48.390625 
Q 23 48.390625 18.546875 47.265625 
Q 14.109375 46.140625 10.015625 43.890625 
L 10.015625 52.203125 
Q 14.9375 54.109375 19.578125 55.046875 
Q 24.21875 56 28.609375 56 
Q 40.484375 56 46.34375 49.84375 
Q 52.203125 43.703125 52.203125 31.203125 
z
" id="DejaVuSans-97"/>
     <path d="M 10.984375 1.515625 
L 10.984375 10.5 
Q 14.703125 8.734375 18.5 7.8125 
Q 22.3125 6.890625 25.984375 6.890625 
Q 35.75 6.890625 40.890625 13.453125 
Q 46.046875 20.015625 46.78125 33.40625 
Q 43.953125 29.203125 39.59375 26.953125 
Q 35.25 24.703125 29.984375 24.703125 
Q 19.046875 24.703125 12.671875 31.3125 
Q 6.296875 37.9375 6.296875 49.421875 
Q 6.296875 60.640625 12.9375 67.421875 
Q 19.578125 74.21875 30.609375 74.21875 
Q 43.265625 74.21875 49.921875 64.515625 
Q 56.59375 54.828125 56.59375 36.375 
Q 56.59375 19.140625 48.40625 8.859375 
Q 40.234375 -1.421875 26.421875 -1.421875 
Q 22.703125 -1.421875 18.890625 -0.6875 
Q 15.09375 0.046875 10.984375 1.515625 
z
M 30.609375 32.421875 
Q 37.25 32.421875 41.125 36.953125 
Q 45.015625 41.5 45.015625 49.421875 
Q 45.015625 57.28125 41.125 61.84375 
Q 37.25 66.40625 30.609375 66.40625 
Q 23.96875 66.40625 20.09375 61.84375 
Q 16.21875 57.28125 16.21875 49.421875 
Q 16.21875 41.5 20.09375 36.953125 
Q 23.96875 32.421875 30.609375 32.421875 
z
" id="DejaVuSans-57"/>
     <path d="M 19.1875 8.296875 
L 53.609375 8.296875 
L 53.609375 0 
L 7.328125 0 
L 7.328125 8.296875 
Q 12.9375 14.109375 22.625 23.890625 
Q 32.328125 33.6875 34.8125 36.53125 
Q 39.546875 41.84375 41.421875 45.53125 
Q 43.3125 49.21875 43.3125 52.78125 
Q 43.3125 58.59375 39.234375 62.25 
Q 35.15625 65.921875 28.609375 65.921875 
Q 23.96875 65.921875 18.8125 64.3125 
Q 13.671875 62.703125 7.8125 59.421875 
L 7.8125 69.390625 
Q 13.765625 71.78125 18.9375 73 
Q 24.125 74.21875 28.421875 74.21875 
Q 39.75 74.21875 46.484375 68.546875 
Q 53.21875 62.890625 53.21875 53.421875 
Q 53.21875 48.921875 51.53125 44.890625 
Q 49.859375 40.875 45.40625 35.40625 
Q 44.1875 33.984375 37.640625 27.21875 
Q 31.109375 20.453125 19.1875 8.296875 
z
" id="DejaVuSans-50"/>
    </defs>
    <g style="fill:#ffffff;" transform="translate(70.439281 121.030556)scale(0.14 -0.14)">
     <use xlink:href="#DejaVuSans-108"/>
     <use x="27.783203" xlink:href="#DejaVuSans-115"/>
     <use x="79.882812" xlink:href="#DejaVuSans-97"/>
     <use x="141.162109" xlink:href="#DejaVuSans-32"/>
     <use x="172.949219" xlink:href="#DejaVuSans-112"/>
     <use x="236.425781" xlink:href="#DejaVuSans-119"/>
     <use x="318.212891" xlink:href="#DejaVuSans-114"/>
     <use x="359.310547" xlink:href="#DejaVuSans-58"/>
     <use x="393.001953" xlink:href="#DejaVuSans-32"/>
     <use x="424.789062" xlink:href="#DejaVuSans-48"/>
     <use x="488.412109" xlink:href="#DejaVuSans-46"/>
     <use x="520.199219" xlink:href="#DejaVuSans-57"/>
     <use x="583.822266" xlink:href="#DejaVuSans-50"/>
    </g>
   </g>
   <g id="text_6">
    <!-- Inter Trial Interval = 2.0 -->
    <defs>
     <path d="M 9.8125 72.90625 
L 19.671875 72.90625 
L 19.671875 0 
L 9.8125 0 
z
" id="DejaVuSans-73"/>
     <path d="M 54.890625 33.015625 
L 54.890625 0 
L 45.90625 0 
L 45.90625 32.71875 
Q 45.90625 40.484375 42.875 44.328125 
Q 39.84375 48.1875 33.796875 48.1875 
Q 26.515625 48.1875 22.3125 43.546875 
Q 18.109375 38.921875 18.109375 30.90625 
L 18.109375 0 
L 9.078125 0 
L 9.078125 54.6875 
L 18.109375 54.6875 
L 18.109375 46.1875 
Q 21.34375 51.125 25.703125 53.5625 
Q 30.078125 56 35.796875 56 
Q 45.21875 56 50.046875 50.171875 
Q 54.890625 44.34375 54.890625 33.015625 
z
" id="DejaVuSans-110"/>
     <path d="M 18.3125 70.21875 
L 18.3125 54.6875 
L 36.8125 54.6875 
L 36.8125 47.703125 
L 18.3125 47.703125 
L 18.3125 18.015625 
Q 18.3125 11.328125 20.140625 9.421875 
Q 21.96875 7.515625 27.59375 7.515625 
L 36.8125 7.515625 
L 36.8125 0 
L 27.59375 0 
Q 17.1875 0 13.234375 3.875 
Q 9.28125 7.765625 9.28125 18.015625 
L 9.28125 47.703125 
L 2.6875 47.703125 
L 2.6875 54.6875 
L 9.28125 54.6875 
L 9.28125 70.21875 
z
" id="DejaVuSans-116"/>
     <path d="M 56.203125 29.59375 
L 56.203125 25.203125 
L 14.890625 25.203125 
Q 15.484375 15.921875 20.484375 11.0625 
Q 25.484375 6.203125 34.421875 6.203125 
Q 39.59375 6.203125 44.453125 7.46875 
Q 49.3125 8.734375 54.109375 11.28125 
L 54.109375 2.78125 
Q 49.265625 0.734375 44.1875 -0.34375 
Q 39.109375 -1.421875 33.890625 -1.421875 
Q 20.796875 -1.421875 13.15625 6.1875 
Q 5.515625 13.8125 5.515625 26.8125 
Q 5.515625 40.234375 12.765625 48.109375 
Q 20.015625 56 32.328125 56 
Q 43.359375 56 49.78125 48.890625 
Q 56.203125 41.796875 56.203125 29.59375 
z
M 47.21875 32.234375 
Q 47.125 39.59375 43.09375 43.984375 
Q 39.0625 48.390625 32.421875 48.390625 
Q 24.90625 48.390625 20.390625 44.140625 
Q 15.875 39.890625 15.1875 32.171875 
z
" id="DejaVuSans-101"/>
     <path d="M -0.296875 72.90625 
L 61.375 72.90625 
L 61.375 64.59375 
L 35.5 64.59375 
L 35.5 0 
L 25.59375 0 
L 25.59375 64.59375 
L -0.296875 64.59375 
z
" id="DejaVuSans-84"/>
     <path d="M 9.421875 54.6875 
L 18.40625 54.6875 
L 18.40625 0 
L 9.421875 0 
z
M 9.421875 75.984375 
L 18.40625 75.984375 
L 18.40625 64.59375 
L 9.421875 64.59375 
z
" id="DejaVuSans-105"/>
     <path d="M 2.984375 54.6875 
L 12.5 54.6875 
L 29.59375 8.796875 
L 46.6875 54.6875 
L 56.203125 54.6875 
L 35.6875 0 
L 23.484375 0 
z
" id="DejaVuSans-118"/>
     <path d="M 10.59375 45.40625 
L 73.1875 45.40625 
L 73.1875 37.203125 
L 10.59375 37.203125 
z
M 10.59375 25.484375 
L 73.1875 25.484375 
L 73.1875 17.1875 
L 10.59375 17.1875 
z
" id="DejaVuSans-61"/>
    </defs>
    <g style="fill:#ffffff;" transform="translate(11.878469 19.053562)scale(0.156 -0.156)">
     <use xlink:href="#DejaVuSans-73"/>
     <use x="29.492188" xlink:href="#DejaVuSans-110"/>
     <use x="92.871094" xlink:href="#DejaVuSans-116"/>
     <use x="132.080078" xlink:href="#DejaVuSans-101"/>
     <use x="193.603516" xlink:href="#DejaVuSans-114"/>
     <use x="234.716797" xlink:href="#DejaVuSans-32"/>
     <use x="266.503906" xlink:href="#DejaVuSans-84"/>
     <use x="327.369141" xlink:href="#DejaVuSans-114"/>
     <use x="368.482422" xlink:href="#DejaVuSans-105"/>
     <use x="396.265625" xlink:href="#DejaVuSans-97"/>
     <use x="457.544922" xlink:href="#DejaVuSans-108"/>
     <use x="485.328125" xlink:href="#DejaVuSans-32"/>
     <use x="517.115234" xlink:href="#DejaVuSans-73"/>
     <use x="546.607422" xlink:href="#DejaVuSans-110"/>
     <use x="609.986328" xlink:href="#DejaVuSans-116"/>
     <use x="649.195312" xlink:href="#DejaVuSans-101"/>
     <use x="710.71875" xlink:href="#DejaVuSans-114"/>
     <use x="751.832031" xlink:href="#DejaVuSans-118"/>
     <use x="811.011719" xlink:href="#DejaVuSans-97"/>
     <use x="872.291016" xlink:href="#DejaVuSans-108"/>
     <use x="900.074219" xlink:href="#DejaVuSans-32"/>
     <use x="931.861328" xlink:href="#DejaVuSans-61"/>
     <use x="1015.650391" xlink:href="#DejaVuSans-32"/>
     <use x="1047.4375" xlink:href="#DejaVuSans-50"/>
     <use x="1111.060547" xlink:href="#DejaVuSans-46"/>
     <use x="1142.847656" xlink:href="#DejaVuSans-48"/>
    </g>
   </g>
  </g>
  <g id="axes_2">
   <g id="patch_46">
    <path d="M 242.47275 178.281563 
L 384.642875 178.281563 
L 384.642875 25.053562 
L 242.47275 25.053562 
z
" style="fill:#363636;"/>
   </g>
   <g id="matplotlib.axis_3">
    <g id="xtick_4"/>
    <g id="xtick_5"/>
    <g id="xtick_6"/>
   </g>
   <g id="matplotlib.axis_4">
    <g id="ytick_5">
     <g id="text_7">
      <!-- 0 -->
      <g style="fill:#ffffff;" transform="translate(223.874375 183.714445)scale(0.143 -0.143)">
       <use xlink:href="#DejaVuSans-48"/>
      </g>
     </g>
    </g>
    <g id="ytick_6">
     <g id="text_8">
      <!-- 5 -->
      <g style="fill:#ffffff;" transform="translate(223.874375 145.900237)scale(0.143 -0.143)">
       <use xlink:href="#DejaVuSans-53"/>
      </g>
     </g>
    </g>
    <g id="ytick_7">
     <g id="text_9">
      <!-- 10 -->
      <g style="fill:#ffffff;" transform="translate(214.776 108.08603)scale(0.143 -0.143)">
       <use xlink:href="#DejaVuSans-49"/>
       <use x="63.623047" xlink:href="#DejaVuSans-48"/>
      </g>
     </g>
    </g>
    <g id="ytick_8">
     <g id="text_10">
      <!-- 15 -->
      <g style="fill:#ffffff;" transform="translate(214.776 70.271822)scale(0.143 -0.143)">
       <use xlink:href="#DejaVuSans-49"/>
       <use x="63.623047" xlink:href="#DejaVuSans-53"/>
      </g>
     </g>
    </g>
    <g id="ytick_9">
     <g id="text_11">
      <!-- 20 -->
      <g style="fill:#ffffff;" transform="translate(214.776 32.457614)scale(0.143 -0.143)">
       <use xlink:href="#DejaVuSans-50"/>
       <use x="63.623047" xlink:href="#DejaVuSans-48"/>
      </g>
     </g>
    </g>
   </g>
   <g id="patch_47">
    <path clip-path="url(#p44589ea122)" d="M 263.529933 178.281563 
L 268.176523 178.281563 
L 268.176523 32.350134 
L 263.529933 32.350134 
z
" style="fill:#8dd3c7;opacity:0.4;stroke:#ffffff;stroke-linejoin:miter;"/>
   </g>
   <g id="patch_48">
    <path clip-path="url(#p44589ea122)" d="M 268.176523 178.281563 
L 272.823113 178.281563 
L 272.823113 172.940894 
L 268.176523 172.940894 
z
" style="fill:#8dd3c7;opacity:0.4;stroke:#ffffff;stroke-linejoin:miter;"/>
   </g>
   <g id="patch_49">
    <path clip-path="url(#p44589ea122)" d="M 272.823113 178.281563 
L 277.469703 178.281563 
L 277.469703 176.298332 
L 272.823113 176.298332 
z
" style="fill:#8dd3c7;opacity:0.4;stroke:#ffffff;stroke-linejoin:miter;"/>
   </g>
   <g id="patch_50">
    <path clip-path="url(#p44589ea122)" d="M 277.469703 178.281563 
L 282.116293 178.281563 
L 282.116293 177.360219 
L 277.469703 177.360219 
z
" style="fill:#8dd3c7;opacity:0.4;stroke:#ffffff;stroke-linejoin:miter;"/>
   </g>
   <g id="patch_51">
    <path clip-path="url(#p44589ea122)" d="M 282.116293 178.281563 
L 286.762882 178.281563 
L 286.762882 177.594459 
L 282.116293 177.594459 
z
" style="fill:#8dd3c7;opacity:0.4;stroke:#ffffff;stroke-linejoin:miter;"/>
   </g>
   <g id="patch_52">
    <path clip-path="url(#p44589ea122)" d="M 286.762882 178.281563 
L 291.409472 178.281563 
L 291.409472 177.875547 
L 286.762882 177.875547 
z
" style="fill:#8dd3c7;opacity:0.4;stroke:#ffffff;stroke-linejoin:miter;"/>
   </g>
   <g id="patch_53">
    <path clip-path="url(#p44589ea122)" d="M 291.409472 178.281563 
L 296.056062 178.281563 
L 296.056062 178.109787 
L 291.409472 178.109787 
z
" style="fill:#8dd3c7;opacity:0.4;stroke:#ffffff;stroke-linejoin:miter;"/>
   </g>
   <g id="patch_54">
    <path clip-path="url(#p44589ea122)" d="M 296.056062 178.281563 
L 300.702652 178.281563 
L 300.702652 178.062939 
L 296.056062 178.062939 
z
" style="fill:#8dd3c7;opacity:0.4;stroke:#ffffff;stroke-linejoin:miter;"/>
   </g>
   <g id="patch_55">
    <path clip-path="url(#p44589ea122)" d="M 300.702652 178.281563 
L 305.349242 178.281563 
L 305.349242 178.156635 
L 300.702652 178.156635 
z
" style="fill:#8dd3c7;opacity:0.4;stroke:#ffffff;stroke-linejoin:miter;"/>
   </g>
   <g id="patch_56">
    <path clip-path="url(#p44589ea122)" d="M 305.349242 178.281563 
L 309.995832 178.281563 
L 309.995832 178.219099 
L 305.349242 178.219099 
z
" style="fill:#8dd3c7;opacity:0.4;stroke:#ffffff;stroke-linejoin:miter;"/>
   </g>
   <g id="patch_57">
    <path clip-path="url(#p44589ea122)" d="M 309.995832 178.281563 
L 314.642421 178.281563 
L 314.642421 178.203483 
L 309.995832 178.203483 
z
" style="fill:#8dd3c7;opacity:0.4;stroke:#ffffff;stroke-linejoin:miter;"/>
   </g>
   <g id="patch_58">
    <path clip-path="url(#p44589ea122)" d="M 314.642421 178.281563 
L 319.289011 178.281563 
L 319.289011 178.234715 
L 314.642421 178.234715 
z
" style="fill:#8dd3c7;opacity:0.4;stroke:#ffffff;stroke-linejoin:miter;"/>
   </g>
   <g id="patch_59">
    <path clip-path="url(#p44589ea122)" d="M 319.289011 178.281563 
L 323.935601 178.281563 
L 323.935601 178.234715 
L 319.289011 178.234715 
z
" style="fill:#8dd3c7;opacity:0.4;stroke:#ffffff;stroke-linejoin:miter;"/>
   </g>
   <g id="patch_60">
    <path clip-path="url(#p44589ea122)" d="M 323.935601 178.281563 
L 328.582191 178.281563 
L 328.582191 178.250331 
L 323.935601 178.250331 
z
" style="fill:#8dd3c7;opacity:0.4;stroke:#ffffff;stroke-linejoin:miter;"/>
   </g>
   <g id="patch_61">
    <path clip-path="url(#p44589ea122)" d="M 328.582191 178.281563 
L 333.228781 178.281563 
L 333.228781 178.265947 
L 328.582191 178.265947 
z
" style="fill:#8dd3c7;opacity:0.4;stroke:#ffffff;stroke-linejoin:miter;"/>
   </g>
   <g id="patch_62">
    <path clip-path="url(#p44589ea122)" d="M 333.228781 178.281563 
L 337.875371 178.281563 
L 337.875371 178.265947 
L 333.228781 178.265947 
z
" style="fill:#8dd3c7;opacity:0.4;stroke:#ffffff;stroke-linejoin:miter;"/>
   </g>
   <g id="patch_63">
    <path clip-path="url(#p44589ea122)" d="M 337.875371 178.281563 
L 342.52196 178.281563 
L 342.52196 178.265947 
L 337.875371 178.265947 
z
" style="fill:#8dd3c7;opacity:0.4;stroke:#ffffff;stroke-linejoin:miter;"/>
   </g>
   <g id="patch_64">
    <path clip-path="url(#p44589ea122)" d="M 342.52196 178.281563 
L 347.16855 178.281563 
L 347.16855 178.250331 
L 342.52196 178.250331 
z
" style="fill:#8dd3c7;opacity:0.4;stroke:#ffffff;stroke-linejoin:miter;"/>
   </g>
   <g id="patch_65">
    <path clip-path="url(#p44589ea122)" d="M 347.16855 178.281563 
L 351.81514 178.281563 
L 351.81514 178.281563 
L 347.16855 178.281563 
z
" style="fill:#8dd3c7;opacity:0.4;stroke:#ffffff;stroke-linejoin:miter;"/>
   </g>
   <g id="patch_66">
    <path clip-path="url(#p44589ea122)" d="M 351.81514 178.281563 
L 356.46173 178.281563 
L 356.46173 178.250331 
L 351.81514 178.250331 
z
" style="fill:#8dd3c7;opacity:0.4;stroke:#ffffff;stroke-linejoin:miter;"/>
   </g>
   <g id="patch_67">
    <path clip-path="url(#p44589ea122)" d="M 263.52994 178.281563 
L 268.325569 178.281563 
L 268.325569 115.29257 
L 263.52994 115.29257 
z
" style="fill:#feffb3;opacity:0.4;stroke:#ffffff;stroke-linejoin:miter;"/>
   </g>
   <g id="patch_68">
    <path clip-path="url(#p44589ea122)" d="M 268.325569 178.281563 
L 273.121199 178.281563 
L 273.121199 157.930807 
L 268.325569 157.930807 
z
" style="fill:#feffb3;opacity:0.4;stroke:#ffffff;stroke-linejoin:miter;"/>
   </g>
   <g id="patch_69">
    <path clip-path="url(#p44589ea122)" d="M 273.121199 178.281563 
L 277.916828 178.281563 
L 277.916828 165.904672 
L 273.121199 165.904672 
z
" style="fill:#feffb3;opacity:0.4;stroke:#ffffff;stroke-linejoin:miter;"/>
   </g>
   <g id="patch_70">
    <path clip-path="url(#p44589ea122)" d="M 277.916828 178.281563 
L 282.712458 178.281563 
L 282.712458 168.461756 
L 277.916828 168.461756 
z
" style="fill:#feffb3;opacity:0.4;stroke:#ffffff;stroke-linejoin:miter;"/>
   </g>
   <g id="patch_71">
    <path clip-path="url(#p44589ea122)" d="M 282.712458 178.281563 
L 287.508087 178.281563 
L 287.508087 171.503021 
L 282.712458 171.503021 
z
" style="fill:#feffb3;opacity:0.4;stroke:#ffffff;stroke-linejoin:miter;"/>
   </g>
   <g id="patch_72">
    <path clip-path="url(#p44589ea122)" d="M 287.508087 178.281563 
L 292.303717 178.281563 
L 292.303717 172.320077 
L 287.508087 172.320077 
z
" style="fill:#feffb3;opacity:0.4;stroke:#ffffff;stroke-linejoin:miter;"/>
   </g>
   <g id="patch_73">
    <path clip-path="url(#p44589ea122)" d="M 292.303717 178.281563 
L 297.099346 178.281563 
L 297.099346 173.923929 
L 292.303717 173.923929 
z
" style="fill:#feffb3;opacity:0.4;stroke:#ffffff;stroke-linejoin:miter;"/>
   </g>
   <g id="patch_74">
    <path clip-path="url(#p44589ea122)" d="M 297.099346 178.281563 
L 301.894976 178.281563 
L 301.894976 174.120627 
L 297.099346 174.120627 
z
" style="fill:#feffb3;opacity:0.4;stroke:#ffffff;stroke-linejoin:miter;"/>
   </g>
   <g id="patch_75">
    <path clip-path="url(#p44589ea122)" d="M 301.894976 178.281563 
L 306.690605 178.281563 
L 306.690605 174.877161 
L 301.894976 174.877161 
z
" style="fill:#feffb3;opacity:0.4;stroke:#ffffff;stroke-linejoin:miter;"/>
   </g>
   <g id="patch_76">
    <path clip-path="url(#p44589ea122)" d="M 306.690605 178.281563 
L 311.486234 178.281563 
L 311.486234 175.346212 
L 306.690605 175.346212 
z
" style="fill:#feffb3;opacity:0.4;stroke:#ffffff;stroke-linejoin:miter;"/>
   </g>
   <g id="patch_77">
    <path clip-path="url(#p44589ea122)" d="M 311.486234 178.281563 
L 316.281864 178.281563 
L 316.281864 175.830393 
L 311.486234 175.830393 
z
" style="fill:#feffb3;opacity:0.4;stroke:#ffffff;stroke-linejoin:miter;"/>
   </g>
   <g id="patch_78">
    <path clip-path="url(#p44589ea122)" d="M 316.281864 178.281563 
L 321.077493 178.281563 
L 321.077493 176.163268 
L 316.281864 176.163268 
z
" style="fill:#feffb3;opacity:0.4;stroke:#ffffff;stroke-linejoin:miter;"/>
   </g>
   <g id="patch_79">
    <path clip-path="url(#p44589ea122)" d="M 321.077493 178.281563 
L 325.873123 178.281563 
L 325.873123 176.299444 
L 321.077493 176.299444 
z
" style="fill:#feffb3;opacity:0.4;stroke:#ffffff;stroke-linejoin:miter;"/>
   </g>
   <g id="patch_80">
    <path clip-path="url(#p44589ea122)" d="M 325.873123 178.281563 
L 330.668752 178.281563 
L 330.668752 176.238922 
L 325.873123 176.238922 
z
" style="fill:#feffb3;opacity:0.4;stroke:#ffffff;stroke-linejoin:miter;"/>
   </g>
   <g id="patch_81">
    <path clip-path="url(#p44589ea122)" d="M 330.668752 178.281563 
L 335.464382 178.281563 
L 335.464382 176.011962 
L 330.668752 176.011962 
z
" style="fill:#feffb3;opacity:0.4;stroke:#ffffff;stroke-linejoin:miter;"/>
   </g>
   <g id="patch_82">
    <path clip-path="url(#p44589ea122)" d="M 335.464382 178.281563 
L 340.260011 178.281563 
L 340.260011 176.87441 
L 335.464382 176.87441 
z
" style="fill:#feffb3;opacity:0.4;stroke:#ffffff;stroke-linejoin:miter;"/>
   </g>
   <g id="patch_83">
    <path clip-path="url(#p44589ea122)" d="M 340.260011 178.281563 
L 345.055641 178.281563 
L 345.055641 176.465882 
L 340.260011 176.465882 
z
" style="fill:#feffb3;opacity:0.4;stroke:#ffffff;stroke-linejoin:miter;"/>
   </g>
   <g id="patch_84">
    <path clip-path="url(#p44589ea122)" d="M 345.055641 178.281563 
L 349.85127 178.281563 
L 349.85127 176.798757 
L 345.055641 176.798757 
z
" style="fill:#feffb3;opacity:0.4;stroke:#ffffff;stroke-linejoin:miter;"/>
   </g>
   <g id="patch_85">
    <path clip-path="url(#p44589ea122)" d="M 349.85127 178.281563 
L 354.646899 178.281563 
L 354.646899 176.844149 
L 349.85127 176.844149 
z
" style="fill:#feffb3;opacity:0.4;stroke:#ffffff;stroke-linejoin:miter;"/>
   </g>
   <g id="patch_86">
    <path clip-path="url(#p44589ea122)" d="M 354.646899 178.281563 
L 359.442529 178.281563 
L 359.442529 177.116501 
L 354.646899 177.116501 
z
" style="fill:#feffb3;opacity:0.4;stroke:#ffffff;stroke-linejoin:miter;"/>
   </g>
   <g id="line2d_3">
    <path clip-path="url(#p44589ea122)" d="M 263.27899 175.730352 
L 264.014688 178.281563 
L 264.750386 148.055836 
L 265.486084 137.73723 
L 266.221783 156.034906 
L 266.957481 162.520606 
L 268.428878 170.919042 
L 269.164576 169.421077 
L 269.900274 173.047197 
L 270.635973 173.886631 
L 271.371671 174.36015 
L 272.107369 174.634726 
L 272.843067 174.635546 
L 273.578766 176.052106 
L 274.314464 175.459366 
L 275.785861 176.826101 
L 277.257257 177.18068 
L 277.992956 176.618416 
L 278.728654 177.392089 
L 279.464352 177.315159 
L 280.20005 177.40662 
L 280.935749 177.740417 
L 281.671447 177.74018 
L 282.407145 177.262276 
L 283.142844 177.840233 
L 283.878542 176.956305 
L 284.61424 178.164761 
L 285.349939 177.563862 
L 286.085637 177.782684 
L 286.821335 177.880161 
L 287.557033 177.662588 
L 288.292732 177.946255 
L 289.02843 177.416016 
L 289.764128 178.281563 
L 290.499827 177.834868 
L 291.235525 178.053199 
L 292.706922 178.021872 
L 293.44262 178.281563 
L 294.914016 178.008661 
L 295.649715 178.153714 
L 296.385413 177.971418 
L 297.121111 178.145965 
L 297.85681 178.133047 
L 298.592508 177.939349 
L 300.799603 178.125274 
L 301.535301 177.990141 
L 302.270999 178.219728 
L 303.006698 178.245276 
L 303.742396 178.071947 
L 305.213793 178.281563 
L 305.949491 178.067757 
L 306.685189 178.278749 
L 308.156586 178.157998 
L 308.892284 178.281563 
L 311.099379 178.105436 
L 311.835077 178.281563 
L 312.570776 177.97597 
L 313.306474 178.241746 
L 318.456362 178.188871 
L 319.19206 178.159142 
L 319.927759 178.281563 
L 320.663457 178.154765 
L 325.077647 178.281563 
L 327.284742 178.15476 
L 328.02044 178.281563 
L 331.698931 178.266293 
L 333.906026 178.281563 
L 334.641725 178.161341 
L 335.377423 178.281563 
L 341.998708 178.281563 
L 342.734406 178.097409 
L 343.470104 178.281563 
L 344.205803 178.207116 
L 344.941501 178.281563 
L 345.677199 178.209735 
L 346.412897 178.281563 
L 347.148596 178.125197 
L 347.884294 178.281563 
L 348.619992 178.153708 
L 349.355691 178.281563 
L 350.091389 178.116312 
L 350.827087 178.281563 
L 351.562786 178.05126 
L 352.298484 178.281563 
L 353.034182 177.934393 
L 353.76988 178.281563 
L 354.505579 177.606205 
L 355.241277 178.281563 
L 355.976975 177.230219 
L 356.712674 178.281563 
L 356.712674 178.281563 
" style="fill:none;stroke:#8dd3c7;stroke-linecap:round;stroke-width:1.5;"/>
   </g>
   <g id="line2d_4">
    <path clip-path="url(#p44589ea122)" d="M 254.848339 178.089919 
L 255.740274 177.804957 
L 256.63221 177.194713 
L 257.524145 176.012849 
L 258.41608 173.94461 
L 259.308016 170.681962 
L 260.199951 166.059333 
L 261.983822 153.661767 
L 262.875757 147.285668 
L 263.767693 142.07781 
L 264.659628 138.846352 
L 265.551563 137.950291 
L 266.443499 139.216108 
L 267.335434 142.060468 
L 270.01124 153.127819 
L 270.903176 156.176113 
L 271.795111 158.682234 
L 272.687046 160.700817 
L 273.578982 162.316988 
L 274.470917 163.614298 
L 275.362852 164.666216 
L 277.146723 166.285252 
L 279.822529 168.195371 
L 282.498335 169.89611 
L 284.282206 170.828492 
L 286.066077 171.519143 
L 288.741883 172.209496 
L 297.661236 174.091248 
L 303.904784 174.811588 
L 308.364461 175.325571 
L 318.17575 176.075504 
L 324.419297 176.265588 
L 334.230586 176.37217 
L 337.798328 176.637004 
L 341.366069 176.619272 
L 345.825746 176.648613 
L 352.069293 176.861386 
L 356.52897 177.285475 
L 364.556388 178.231544 
L 367.232194 178.253294 
L 368.12413 178.209702 
L 368.12413 178.209702 
" style="fill:none;stroke:#feffb3;stroke-linecap:round;stroke-width:1.5;"/>
   </g>
   <g id="patch_87">
    <path d="M 242.47275 178.281563 
L 242.47275 25.053562 
" style="fill:none;stroke:#ffffff;stroke-linecap:square;stroke-linejoin:miter;stroke-width:1.25;"/>
   </g>
   <g id="patch_88">
    <path d="M 242.47275 178.281563 
L 384.642875 178.281563 
" style="fill:none;stroke:#ffffff;stroke-linecap:square;stroke-linejoin:miter;stroke-width:1.25;"/>
   </g>
   <g id="text_12">
    <g id="patch_89">
     <path d="M 383.430278 46.04625 
L 383.430277 157.288875 
L 406.640152 157.288875 
L 406.640153 46.04625 
z
" style="fill:#363636;stroke:#363636;stroke-linejoin:miter;"/>
    </g>
    <!-- # Trials = 15 -->
    <defs>
     <path d="M 51.125 44 
L 36.921875 44 
L 32.8125 27.6875 
L 47.125 27.6875 
z
M 43.796875 71.78125 
L 38.71875 51.515625 
L 52.984375 51.515625 
L 58.109375 71.78125 
L 65.921875 71.78125 
L 60.890625 51.515625 
L 76.125 51.515625 
L 76.125 44 
L 58.984375 44 
L 54.984375 27.6875 
L 70.515625 27.6875 
L 70.515625 20.21875 
L 53.078125 20.21875 
L 48 0 
L 40.1875 0 
L 45.21875 20.21875 
L 30.90625 20.21875 
L 25.875 0 
L 18.015625 0 
L 23.09375 20.21875 
L 7.71875 20.21875 
L 7.71875 27.6875 
L 24.90625 27.6875 
L 29 44 
L 13.28125 44 
L 13.28125 51.515625 
L 30.90625 51.515625 
L 35.890625 71.78125 
z
" id="DejaVuSans-35"/>
    </defs>
    <g style="fill:#ffffff;" transform="translate(390.73059 50.10225)rotate(-270)scale(0.156 -0.156)">
     <use xlink:href="#DejaVuSans-35"/>
     <use x="83.789062" xlink:href="#DejaVuSans-32"/>
     <use x="115.576172" xlink:href="#DejaVuSans-84"/>
     <use x="176.441406" xlink:href="#DejaVuSans-114"/>
     <use x="217.554688" xlink:href="#DejaVuSans-105"/>
     <use x="245.337891" xlink:href="#DejaVuSans-97"/>
     <use x="306.617188" xlink:href="#DejaVuSans-108"/>
     <use x="334.400391" xlink:href="#DejaVuSans-115"/>
     <use x="386.5" xlink:href="#DejaVuSans-32"/>
     <use x="418.287109" xlink:href="#DejaVuSans-61"/>
     <use x="502.076172" xlink:href="#DejaVuSans-32"/>
     <use x="533.863281" xlink:href="#DejaVuSans-49"/>
     <use x="597.486328" xlink:href="#DejaVuSans-53"/>
    </g>
   </g>
   <g id="text_13">
    <g id="patch_90">
     <path d="M 278.015281 128.142119 
L 368.654344 128.142119 
Q 372.854344 128.142119 372.854344 123.942119 
L 372.854344 94.715806 
Q 372.854344 90.515806 368.654344 90.515806 
L 278.015281 90.515806 
Q 273.815281 90.515806 273.815281 94.715806 
L 273.815281 123.942119 
Q 273.815281 128.142119 278.015281 128.142119 
z
" style="fill:#f5deb3;opacity:0.5;stroke:#ffffff;stroke-linejoin:miter;"/>
    </g>
    <!-- lss pwr: 0.94 -->
    <defs>
     <path d="M 37.796875 64.3125 
L 12.890625 25.390625 
L 37.796875 25.390625 
z
M 35.203125 72.90625 
L 47.609375 72.90625 
L 47.609375 25.390625 
L 58.015625 25.390625 
L 58.015625 17.1875 
L 47.609375 17.1875 
L 47.609375 0 
L 37.796875 0 
L 37.796875 17.1875 
L 4.890625 17.1875 
L 4.890625 26.703125 
z
" id="DejaVuSans-52"/>
    </defs>
    <g style="fill:#ffffff;" transform="translate(278.015281 105.353619)scale(0.14 -0.14)">
     <use xlink:href="#DejaVuSans-108"/>
     <use x="27.783203" xlink:href="#DejaVuSans-115"/>
     <use x="79.882812" xlink:href="#DejaVuSans-115"/>
     <use x="131.982422" xlink:href="#DejaVuSans-32"/>
     <use x="163.769531" xlink:href="#DejaVuSans-112"/>
     <use x="227.246094" xlink:href="#DejaVuSans-119"/>
     <use x="309.033203" xlink:href="#DejaVuSans-114"/>
     <use x="350.130859" xlink:href="#DejaVuSans-58"/>
     <use x="383.822266" xlink:href="#DejaVuSans-32"/>
     <use x="415.609375" xlink:href="#DejaVuSans-48"/>
     <use x="479.232422" xlink:href="#DejaVuSans-46"/>
     <use x="511.019531" xlink:href="#DejaVuSans-57"/>
     <use x="574.642578" xlink:href="#DejaVuSans-52"/>
    </g>
    <!-- lsa pwr: 0.42 -->
    <g style="fill:#ffffff;" transform="translate(278.015281 121.030556)scale(0.14 -0.14)">
     <use xlink:href="#DejaVuSans-108"/>
     <use x="27.783203" xlink:href="#DejaVuSans-115"/>
     <use x="79.882812" xlink:href="#DejaVuSans-97"/>
     <use x="141.162109" xlink:href="#DejaVuSans-32"/>
     <use x="172.949219" xlink:href="#DejaVuSans-112"/>
     <use x="236.425781" xlink:href="#DejaVuSans-119"/>
     <use x="318.212891" xlink:href="#DejaVuSans-114"/>
     <use x="359.310547" xlink:href="#DejaVuSans-58"/>
     <use x="393.001953" xlink:href="#DejaVuSans-32"/>
     <use x="424.789062" xlink:href="#DejaVuSans-48"/>
     <use x="488.412109" xlink:href="#DejaVuSans-46"/>
     <use x="520.199219" xlink:href="#DejaVuSans-52"/>
     <use x="583.822266" xlink:href="#DejaVuSans-50"/>
    </g>
   </g>
   <g id="text_14">
    <!-- Inter Trial Interval = 8.0 -->
    <defs>
     <path d="M 31.78125 34.625 
Q 24.75 34.625 20.71875 30.859375 
Q 16.703125 27.09375 16.703125 20.515625 
Q 16.703125 13.921875 20.71875 10.15625 
Q 24.75 6.390625 31.78125 6.390625 
Q 38.8125 6.390625 42.859375 10.171875 
Q 46.921875 13.96875 46.921875 20.515625 
Q 46.921875 27.09375 42.890625 30.859375 
Q 38.875 34.625 31.78125 34.625 
z
M 21.921875 38.8125 
Q 15.578125 40.375 12.03125 44.71875 
Q 8.5 49.078125 8.5 55.328125 
Q 8.5 64.0625 14.71875 69.140625 
Q 20.953125 74.21875 31.78125 74.21875 
Q 42.671875 74.21875 48.875 69.140625 
Q 55.078125 64.0625 55.078125 55.328125 
Q 55.078125 49.078125 51.53125 44.71875 
Q 48 40.375 41.703125 38.8125 
Q 48.828125 37.15625 52.796875 32.3125 
Q 56.78125 27.484375 56.78125 20.515625 
Q 56.78125 9.90625 50.3125 4.234375 
Q 43.84375 -1.421875 31.78125 -1.421875 
Q 19.734375 -1.421875 13.25 4.234375 
Q 6.78125 9.90625 6.78125 20.515625 
Q 6.78125 27.484375 10.78125 32.3125 
Q 14.796875 37.15625 21.921875 38.8125 
z
M 18.3125 54.390625 
Q 18.3125 48.734375 21.84375 45.5625 
Q 25.390625 42.390625 31.78125 42.390625 
Q 38.140625 42.390625 41.71875 45.5625 
Q 45.3125 48.734375 45.3125 54.390625 
Q 45.3125 60.0625 41.71875 63.234375 
Q 38.140625 66.40625 31.78125 66.40625 
Q 25.390625 66.40625 21.84375 63.234375 
Q 18.3125 60.0625 18.3125 54.390625 
z
" id="DejaVuSans-56"/>
    </defs>
    <g style="fill:#ffffff;" transform="translate(219.454469 19.053562)scale(0.156 -0.156)">
     <use xlink:href="#DejaVuSans-73"/>
     <use x="29.492188" xlink:href="#DejaVuSans-110"/>
     <use x="92.871094" xlink:href="#DejaVuSans-116"/>
     <use x="132.080078" xlink:href="#DejaVuSans-101"/>
     <use x="193.603516" xlink:href="#DejaVuSans-114"/>
     <use x="234.716797" xlink:href="#DejaVuSans-32"/>
     <use x="266.503906" xlink:href="#DejaVuSans-84"/>
     <use x="327.369141" xlink:href="#DejaVuSans-114"/>
     <use x="368.482422" xlink:href="#DejaVuSans-105"/>
     <use x="396.265625" xlink:href="#DejaVuSans-97"/>
     <use x="457.544922" xlink:href="#DejaVuSans-108"/>
     <use x="485.328125" xlink:href="#DejaVuSans-32"/>
     <use x="517.115234" xlink:href="#DejaVuSans-73"/>
     <use x="546.607422" xlink:href="#DejaVuSans-110"/>
     <use x="609.986328" xlink:href="#DejaVuSans-116"/>
     <use x="649.195312" xlink:href="#DejaVuSans-101"/>
     <use x="710.71875" xlink:href="#DejaVuSans-114"/>
     <use x="751.832031" xlink:href="#DejaVuSans-118"/>
     <use x="811.011719" xlink:href="#DejaVuSans-97"/>
     <use x="872.291016" xlink:href="#DejaVuSans-108"/>
     <use x="900.074219" xlink:href="#DejaVuSans-32"/>
     <use x="931.861328" xlink:href="#DejaVuSans-61"/>
     <use x="1015.650391" xlink:href="#DejaVuSans-32"/>
     <use x="1047.4375" xlink:href="#DejaVuSans-56"/>
     <use x="1111.060547" xlink:href="#DejaVuSans-46"/>
     <use x="1142.847656" xlink:href="#DejaVuSans-48"/>
    </g>
   </g>
   <g id="legend_1">
    <g id="patch_91">
     <path d="M 308.687531 78.473 
L 374.632875 78.473 
Q 377.492875 78.473 377.492875 75.613 
L 377.492875 35.063562 
Q 377.492875 32.203562 374.632875 32.203562 
L 308.687531 32.203562 
Q 305.827531 32.203562 305.827531 35.063562 
L 305.827531 75.613 
Q 305.827531 78.473 308.687531 78.473 
z
" style="fill:#363636;opacity:0.8;stroke:#cccccc;stroke-linejoin:miter;"/>
    </g>
    <g id="patch_92">
     <path d="M 311.547531 48.789328 
L 340.147531 48.789328 
L 340.147531 38.779328 
L 311.547531 38.779328 
z
" style="fill:#8dd3c7;opacity:0.4;stroke:#ffffff;stroke-linejoin:miter;"/>
    </g>
    <g id="text_15">
     <!-- lss -->
     <g style="fill:#ffffff;" transform="translate(351.587531 48.789328)scale(0.143 -0.143)">
      <use xlink:href="#DejaVuSans-108"/>
      <use x="27.783203" xlink:href="#DejaVuSans-115"/>
      <use x="79.882812" xlink:href="#DejaVuSans-115"/>
     </g>
    </g>
    <g id="patch_93">
     <path d="M 311.547531 69.779047 
L 340.147531 69.779047 
L 340.147531 59.769047 
L 311.547531 59.769047 
z
" style="fill:#feffb3;opacity:0.4;stroke:#ffffff;stroke-linejoin:miter;"/>
    </g>
    <g id="text_16">
     <!-- lsa -->
     <g style="fill:#ffffff;" transform="translate(351.587531 69.779047)scale(0.143 -0.143)">
      <use xlink:href="#DejaVuSans-108"/>
      <use x="27.783203" xlink:href="#DejaVuSans-115"/>
      <use x="79.882812" xlink:href="#DejaVuSans-97"/>
     </g>
    </g>
   </g>
  </g>
  <g id="axes_3">
   <g id="patch_94">
    <path d="M 34.89675 362.857563 
L 177.066875 362.857563 
L 177.066875 209.629562 
L 34.89675 209.629562 
z
" style="fill:#363636;"/>
   </g>
   <g id="matplotlib.axis_5">
    <g id="xtick_7">
     <g id="text_17">
      <!-- 0.0 -->
      <g style="fill:#ffffff;" transform="translate(44.583199 383.223328)scale(0.143 -0.143)">
       <use xlink:href="#DejaVuSans-48"/>
       <use x="63.623047" xlink:href="#DejaVuSans-46"/>
       <use x="95.410156" xlink:href="#DejaVuSans-48"/>
      </g>
     </g>
    </g>
    <g id="xtick_8">
     <g id="text_18">
      <!-- 0.5 -->
      <g style="fill:#ffffff;" transform="translate(92.555314 383.223328)scale(0.143 -0.143)">
       <use xlink:href="#DejaVuSans-48"/>
       <use x="63.623047" xlink:href="#DejaVuSans-46"/>
       <use x="95.410156" xlink:href="#DejaVuSans-53"/>
      </g>
     </g>
    </g>
    <g id="xtick_9">
     <g id="text_19">
      <!-- 1.0 -->
      <g style="fill:#ffffff;" transform="translate(140.527429 383.223328)scale(0.143 -0.143)">
       <use xlink:href="#DejaVuSans-49"/>
       <use x="63.623047" xlink:href="#DejaVuSans-46"/>
       <use x="95.410156" xlink:href="#DejaVuSans-48"/>
      </g>
     </g>
    </g>
    <g id="text_20">
     <!-- p value -->
     <defs>
      <path d="M 8.5 21.578125 
L 8.5 54.6875 
L 17.484375 54.6875 
L 17.484375 21.921875 
Q 17.484375 14.15625 20.5 10.265625 
Q 23.53125 6.390625 29.59375 6.390625 
Q 36.859375 6.390625 41.078125 11.03125 
Q 45.3125 15.671875 45.3125 23.6875 
L 45.3125 54.6875 
L 54.296875 54.6875 
L 54.296875 0 
L 45.3125 0 
L 45.3125 8.40625 
Q 42.046875 3.421875 37.71875 1 
Q 33.40625 -1.421875 27.6875 -1.421875 
Q 18.265625 -1.421875 13.375 4.4375 
Q 8.5 10.296875 8.5 21.578125 
z
M 31.109375 56 
z
" id="DejaVuSans-117"/>
     </defs>
     <g style="fill:#ffffff;" transform="translate(77.244906 402.050844)scale(0.156 -0.156)">
      <use xlink:href="#DejaVuSans-112"/>
      <use x="63.476562" xlink:href="#DejaVuSans-32"/>
      <use x="95.263672" xlink:href="#DejaVuSans-118"/>
      <use x="154.443359" xlink:href="#DejaVuSans-97"/>
      <use x="215.722656" xlink:href="#DejaVuSans-108"/>
      <use x="243.505859" xlink:href="#DejaVuSans-117"/>
      <use x="306.884766" xlink:href="#DejaVuSans-101"/>
     </g>
    </g>
   </g>
   <g id="matplotlib.axis_6">
    <g id="ytick_10">
     <g id="text_21">
      <!-- 0 -->
      <g style="fill:#ffffff;" transform="translate(16.298375 368.290445)scale(0.143 -0.143)">
       <use xlink:href="#DejaVuSans-48"/>
      </g>
     </g>
    </g>
    <g id="ytick_11">
     <g id="text_22">
      <!-- 20 -->
      <g style="fill:#ffffff;" transform="translate(7.2 329.890561)scale(0.143 -0.143)">
       <use xlink:href="#DejaVuSans-50"/>
       <use x="63.623047" xlink:href="#DejaVuSans-48"/>
      </g>
     </g>
    </g>
    <g id="ytick_12">
     <g id="text_23">
      <!-- 40 -->
      <g style="fill:#ffffff;" transform="translate(7.2 291.490676)scale(0.143 -0.143)">
       <use xlink:href="#DejaVuSans-52"/>
       <use x="63.623047" xlink:href="#DejaVuSans-48"/>
      </g>
     </g>
    </g>
    <g id="ytick_13">
     <g id="text_24">
      <!-- 60 -->
      <defs>
       <path d="M 33.015625 40.375 
Q 26.375 40.375 22.484375 35.828125 
Q 18.609375 31.296875 18.609375 23.390625 
Q 18.609375 15.53125 22.484375 10.953125 
Q 26.375 6.390625 33.015625 6.390625 
Q 39.65625 6.390625 43.53125 10.953125 
Q 47.40625 15.53125 47.40625 23.390625 
Q 47.40625 31.296875 43.53125 35.828125 
Q 39.65625 40.375 33.015625 40.375 
z
M 52.59375 71.296875 
L 52.59375 62.3125 
Q 48.875 64.0625 45.09375 64.984375 
Q 41.3125 65.921875 37.59375 65.921875 
Q 27.828125 65.921875 22.671875 59.328125 
Q 17.53125 52.734375 16.796875 39.40625 
Q 19.671875 43.65625 24.015625 45.921875 
Q 28.375 48.1875 33.59375 48.1875 
Q 44.578125 48.1875 50.953125 41.515625 
Q 57.328125 34.859375 57.328125 23.390625 
Q 57.328125 12.15625 50.6875 5.359375 
Q 44.046875 -1.421875 33.015625 -1.421875 
Q 20.359375 -1.421875 13.671875 8.265625 
Q 6.984375 17.96875 6.984375 36.375 
Q 6.984375 53.65625 15.1875 63.9375 
Q 23.390625 74.21875 37.203125 74.21875 
Q 40.921875 74.21875 44.703125 73.484375 
Q 48.484375 72.75 52.59375 71.296875 
z
" id="DejaVuSans-54"/>
      </defs>
      <g style="fill:#ffffff;" transform="translate(7.2 253.090792)scale(0.143 -0.143)">
       <use xlink:href="#DejaVuSans-54"/>
       <use x="63.623047" xlink:href="#DejaVuSans-48"/>
      </g>
     </g>
    </g>
    <g id="ytick_14">
     <g id="text_25">
      <!-- 80 -->
      <g style="fill:#ffffff;" transform="translate(7.2 214.690907)scale(0.143 -0.143)">
       <use xlink:href="#DejaVuSans-56"/>
       <use x="63.623047" xlink:href="#DejaVuSans-48"/>
      </g>
     </g>
    </g>
   </g>
   <g id="patch_95">
    <path clip-path="url(#pa041c87e0b)" d="M 55.953933 362.857563 
L 57.190251 362.857563 
L 57.190251 216.926134 
L 55.953933 216.926134 
z
" style="fill:#8dd3c7;opacity:0.4;stroke:#ffffff;stroke-linejoin:miter;"/>
   </g>
   <g id="patch_96">
    <path clip-path="url(#pa041c87e0b)" d="M 57.190251 362.857563 
L 58.426569 362.857563 
L 58.426569 361.442054 
L 57.190251 361.442054 
z
" style="fill:#8dd3c7;opacity:0.4;stroke:#ffffff;stroke-linejoin:miter;"/>
   </g>
   <g id="patch_97">
    <path clip-path="url(#pa041c87e0b)" d="M 58.426569 362.857563 
L 59.662886 362.857563 
L 59.662886 362.038058 
L 58.426569 362.038058 
z
" style="fill:#8dd3c7;opacity:0.4;stroke:#ffffff;stroke-linejoin:miter;"/>
   </g>
   <g id="patch_98">
    <path clip-path="url(#pa041c87e0b)" d="M 59.662886 362.857563 
L 60.899204 362.857563 
L 60.899204 362.574461 
L 59.662886 362.574461 
z
" style="fill:#8dd3c7;opacity:0.4;stroke:#ffffff;stroke-linejoin:miter;"/>
   </g>
   <g id="patch_99">
    <path clip-path="url(#pa041c87e0b)" d="M 60.899204 362.857563 
L 62.135521 362.857563 
L 62.135521 362.634061 
L 60.899204 362.634061 
z
" style="fill:#8dd3c7;opacity:0.4;stroke:#ffffff;stroke-linejoin:miter;"/>
   </g>
   <g id="patch_100">
    <path clip-path="url(#pa041c87e0b)" d="M 62.135521 362.857563 
L 63.371839 362.857563 
L 63.371839 362.783062 
L 62.135521 362.783062 
z
" style="fill:#8dd3c7;opacity:0.4;stroke:#ffffff;stroke-linejoin:miter;"/>
   </g>
   <g id="patch_101">
    <path clip-path="url(#pa041c87e0b)" d="M 63.371839 362.857563 
L 64.608157 362.857563 
L 64.608157 362.812862 
L 63.371839 362.812862 
z
" style="fill:#8dd3c7;opacity:0.4;stroke:#ffffff;stroke-linejoin:miter;"/>
   </g>
   <g id="patch_102">
    <path clip-path="url(#pa041c87e0b)" d="M 64.608157 362.857563 
L 65.844474 362.857563 
L 65.844474 362.753262 
L 64.608157 362.753262 
z
" style="fill:#8dd3c7;opacity:0.4;stroke:#ffffff;stroke-linejoin:miter;"/>
   </g>
   <g id="patch_103">
    <path clip-path="url(#pa041c87e0b)" d="M 65.844474 362.857563 
L 67.080792 362.857563 
L 67.080792 362.842662 
L 65.844474 362.842662 
z
" style="fill:#8dd3c7;opacity:0.4;stroke:#ffffff;stroke-linejoin:miter;"/>
   </g>
   <g id="patch_104">
    <path clip-path="url(#pa041c87e0b)" d="M 67.080792 362.857563 
L 68.317109 362.857563 
L 68.317109 362.842662 
L 67.080792 362.842662 
z
" style="fill:#8dd3c7;opacity:0.4;stroke:#ffffff;stroke-linejoin:miter;"/>
   </g>
   <g id="patch_105">
    <path clip-path="url(#pa041c87e0b)" d="M 68.317109 362.857563 
L 69.553427 362.857563 
L 69.553427 362.827762 
L 68.317109 362.827762 
z
" style="fill:#8dd3c7;opacity:0.4;stroke:#ffffff;stroke-linejoin:miter;"/>
   </g>
   <g id="patch_106">
    <path clip-path="url(#pa041c87e0b)" d="M 69.553427 362.857563 
L 70.789744 362.857563 
L 70.789744 362.857563 
L 69.553427 362.857563 
z
" style="fill:#8dd3c7;opacity:0.4;stroke:#ffffff;stroke-linejoin:miter;"/>
   </g>
   <g id="patch_107">
    <path clip-path="url(#pa041c87e0b)" d="M 70.789744 362.857563 
L 72.026062 362.857563 
L 72.026062 362.857563 
L 70.789744 362.857563 
z
" style="fill:#8dd3c7;opacity:0.4;stroke:#ffffff;stroke-linejoin:miter;"/>
   </g>
   <g id="patch_108">
    <path clip-path="url(#pa041c87e0b)" d="M 72.026062 362.857563 
L 73.26238 362.857563 
L 73.26238 362.857563 
L 72.026062 362.857563 
z
" style="fill:#8dd3c7;opacity:0.4;stroke:#ffffff;stroke-linejoin:miter;"/>
   </g>
   <g id="patch_109">
    <path clip-path="url(#pa041c87e0b)" d="M 73.26238 362.857563 
L 74.498697 362.857563 
L 74.498697 362.857563 
L 73.26238 362.857563 
z
" style="fill:#8dd3c7;opacity:0.4;stroke:#ffffff;stroke-linejoin:miter;"/>
   </g>
   <g id="patch_110">
    <path clip-path="url(#pa041c87e0b)" d="M 74.498697 362.857563 
L 75.735015 362.857563 
L 75.735015 362.857563 
L 74.498697 362.857563 
z
" style="fill:#8dd3c7;opacity:0.4;stroke:#ffffff;stroke-linejoin:miter;"/>
   </g>
   <g id="patch_111">
    <path clip-path="url(#pa041c87e0b)" d="M 75.735015 362.857563 
L 76.971332 362.857563 
L 76.971332 362.842662 
L 75.735015 362.842662 
z
" style="fill:#8dd3c7;opacity:0.4;stroke:#ffffff;stroke-linejoin:miter;"/>
   </g>
   <g id="patch_112">
    <path clip-path="url(#pa041c87e0b)" d="M 76.971332 362.857563 
L 78.20765 362.857563 
L 78.20765 362.842662 
L 76.971332 362.842662 
z
" style="fill:#8dd3c7;opacity:0.4;stroke:#ffffff;stroke-linejoin:miter;"/>
   </g>
   <g id="patch_113">
    <path clip-path="url(#pa041c87e0b)" d="M 78.20765 362.857563 
L 79.443968 362.857563 
L 79.443968 362.857563 
L 78.20765 362.857563 
z
" style="fill:#8dd3c7;opacity:0.4;stroke:#ffffff;stroke-linejoin:miter;"/>
   </g>
   <g id="patch_114">
    <path clip-path="url(#pa041c87e0b)" d="M 79.443968 362.857563 
L 80.680285 362.857563 
L 80.680285 362.842662 
L 79.443968 362.842662 
z
" style="fill:#8dd3c7;opacity:0.4;stroke:#ffffff;stroke-linejoin:miter;"/>
   </g>
   <g id="patch_115">
    <path clip-path="url(#pa041c87e0b)" d="M 60.065462 362.857563 
L 64.657097 362.857563 
L 64.657097 358.340149 
L 60.065462 358.340149 
z
" style="fill:#feffb3;opacity:0.4;stroke:#ffffff;stroke-linejoin:miter;"/>
   </g>
   <g id="patch_116">
    <path clip-path="url(#pa041c87e0b)" d="M 64.657097 362.857563 
L 69.248732 362.857563 
L 69.248732 359.627973 
L 64.657097 359.627973 
z
" style="fill:#feffb3;opacity:0.4;stroke:#ffffff;stroke-linejoin:miter;"/>
   </g>
   <g id="patch_117">
    <path clip-path="url(#pa041c87e0b)" d="M 69.248732 362.857563 
L 73.840367 362.857563 
L 73.840367 360.446403 
L 69.248732 360.446403 
z
" style="fill:#feffb3;opacity:0.4;stroke:#ffffff;stroke-linejoin:miter;"/>
   </g>
   <g id="patch_118">
    <path clip-path="url(#pa041c87e0b)" d="M 73.840367 362.857563 
L 78.432002 362.857563 
L 78.432002 360.883702 
L 73.840367 360.883702 
z
" style="fill:#feffb3;opacity:0.4;stroke:#ffffff;stroke-linejoin:miter;"/>
   </g>
   <g id="patch_119">
    <path clip-path="url(#pa041c87e0b)" d="M 78.432002 362.857563 
L 83.023637 362.857563 
L 83.023637 361.284893 
L 78.432002 361.284893 
z
" style="fill:#feffb3;opacity:0.4;stroke:#ffffff;stroke-linejoin:miter;"/>
   </g>
   <g id="patch_120">
    <path clip-path="url(#pa041c87e0b)" d="M 83.023637 362.857563 
L 87.615272 362.857563 
L 87.615272 361.601834 
L 83.023637 361.601834 
z
" style="fill:#feffb3;opacity:0.4;stroke:#ffffff;stroke-linejoin:miter;"/>
   </g>
   <g id="patch_121">
    <path clip-path="url(#pa041c87e0b)" d="M 87.615272 362.857563 
L 92.206907 362.857563 
L 92.206907 361.790394 
L 87.615272 361.790394 
z
" style="fill:#feffb3;opacity:0.4;stroke:#ffffff;stroke-linejoin:miter;"/>
   </g>
   <g id="patch_122">
    <path clip-path="url(#pa041c87e0b)" d="M 92.206907 362.857563 
L 96.798542 362.857563 
L 96.798542 362.123383 
L 92.206907 362.123383 
z
" style="fill:#feffb3;opacity:0.4;stroke:#ffffff;stroke-linejoin:miter;"/>
   </g>
   <g id="patch_123">
    <path clip-path="url(#pa041c87e0b)" d="M 96.798542 362.857563 
L 101.390177 362.857563 
L 101.390177 362.083263 
L 96.798542 362.083263 
z
" style="fill:#feffb3;opacity:0.4;stroke:#ffffff;stroke-linejoin:miter;"/>
   </g>
   <g id="patch_124">
    <path clip-path="url(#pa041c87e0b)" d="M 101.390177 362.857563 
L 105.981813 362.857563 
L 105.981813 362.207633 
L 101.390177 362.207633 
z
" style="fill:#feffb3;opacity:0.4;stroke:#ffffff;stroke-linejoin:miter;"/>
   </g>
   <g id="patch_125">
    <path clip-path="url(#pa041c87e0b)" d="M 105.981813 362.857563 
L 110.573448 362.857563 
L 110.573448 362.303919 
L 105.981813 362.303919 
z
" style="fill:#feffb3;opacity:0.4;stroke:#ffffff;stroke-linejoin:miter;"/>
   </g>
   <g id="patch_126">
    <path clip-path="url(#pa041c87e0b)" d="M 110.573448 362.857563 
L 115.165083 362.857563 
L 115.165083 362.32799 
L 110.573448 362.32799 
z
" style="fill:#feffb3;opacity:0.4;stroke:#ffffff;stroke-linejoin:miter;"/>
   </g>
   <g id="patch_127">
    <path clip-path="url(#pa041c87e0b)" d="M 115.165083 362.857563 
L 119.756718 362.857563 
L 119.756718 362.376133 
L 115.165083 362.376133 
z
" style="fill:#feffb3;opacity:0.4;stroke:#ffffff;stroke-linejoin:miter;"/>
   </g>
   <g id="patch_128">
    <path clip-path="url(#pa041c87e0b)" d="M 119.756718 362.857563 
L 124.348353 362.857563 
L 124.348353 362.376133 
L 119.756718 362.376133 
z
" style="fill:#feffb3;opacity:0.4;stroke:#ffffff;stroke-linejoin:miter;"/>
   </g>
   <g id="patch_129">
    <path clip-path="url(#pa041c87e0b)" d="M 124.348353 362.857563 
L 128.939988 362.857563 
L 128.939988 362.508526 
L 124.348353 362.508526 
z
" style="fill:#feffb3;opacity:0.4;stroke:#ffffff;stroke-linejoin:miter;"/>
   </g>
   <g id="patch_130">
    <path clip-path="url(#pa041c87e0b)" d="M 128.939988 362.857563 
L 133.531623 362.857563 
L 133.531623 362.428288 
L 128.939988 362.428288 
z
" style="fill:#feffb3;opacity:0.4;stroke:#ffffff;stroke-linejoin:miter;"/>
   </g>
   <g id="patch_131">
    <path clip-path="url(#pa041c87e0b)" d="M 133.531623 362.857563 
L 138.123258 362.857563 
L 138.123258 362.492478 
L 133.531623 362.492478 
z
" style="fill:#feffb3;opacity:0.4;stroke:#ffffff;stroke-linejoin:miter;"/>
   </g>
   <g id="patch_132">
    <path clip-path="url(#pa041c87e0b)" d="M 138.123258 362.857563 
L 142.714893 362.857563 
L 142.714893 362.488467 
L 138.123258 362.488467 
z
" style="fill:#feffb3;opacity:0.4;stroke:#ffffff;stroke-linejoin:miter;"/>
   </g>
   <g id="patch_133">
    <path clip-path="url(#pa041c87e0b)" d="M 142.714893 362.857563 
L 147.306528 362.857563 
L 147.306528 362.255776 
L 142.714893 362.255776 
z
" style="fill:#feffb3;opacity:0.4;stroke:#ffffff;stroke-linejoin:miter;"/>
   </g>
   <g id="patch_134">
    <path clip-path="url(#pa041c87e0b)" d="M 147.306528 362.857563 
L 151.898163 362.857563 
L 151.898163 345.084792 
L 147.306528 345.084792 
z
" style="fill:#feffb3;opacity:0.4;stroke:#ffffff;stroke-linejoin:miter;"/>
   </g>
   <g id="line2d_5">
    <path clip-path="url(#pa041c87e0b)" d="M 55.942385 362.224631 
L 56.137262 362.857563 
L 56.527017 347.551653 
L 56.721895 355.769356 
L 56.916773 357.907261 
L 57.11165 358.28403 
L 57.306528 361.184004 
L 57.501405 360.819998 
L 57.696283 361.577806 
L 57.89116 361.494667 
L 58.086038 362.002094 
L 58.280915 361.88776 
L 58.475793 361.52821 
L 58.865548 362.18122 
L 59.060426 362.047622 
L 59.255303 362.264055 
L 59.450181 362.072911 
L 59.645058 362.131057 
L 59.839936 362.607158 
L 60.034813 362.749622 
L 60.229691 362.302656 
L 60.424568 362.838454 
L 60.619446 362.533857 
L 60.814324 362.806473 
L 61.009201 362.392971 
L 61.398956 362.764532 
L 61.593834 362.607934 
L 61.983589 362.695471 
L 63.347732 362.815533 
L 63.542609 362.653648 
L 63.737487 362.855305 
L 66.270895 362.84023 
L 66.855528 362.857563 
L 67.050405 362.6768 
L 67.44016 362.857563 
L 68.219671 362.857563 
L 68.414548 362.609642 
L 68.609426 362.857563 
L 69.194058 362.83848 
L 70.363324 362.850976 
L 73.676242 362.857563 
L 77.768671 362.857563 
L 80.302079 362.857563 
L 80.496956 362.649584 
L 80.691834 362.857563 
L 80.691834 362.857563 
" style="fill:none;stroke:#8dd3c7;stroke-linecap:round;stroke-width:1.5;"/>
   </g>
   <g id="line2d_6">
    <path clip-path="url(#pa041c87e0b)" d="M 41.359028 362.829481 
L 47.465118 362.765624 
L 51.535845 362.500457 
L 54.58889 362.08075 
L 58.659616 361.251998 
L 62.730343 360.457554 
L 65.783388 360.152623 
L 68.836433 360.157666 
L 72.907159 360.475335 
L 83.083976 361.390427 
L 91.225429 361.85252 
L 100.384563 362.13338 
L 117.685151 362.366509 
L 130.915013 362.411501 
L 134.985739 362.198705 
L 137.021102 361.921533 
L 139.056466 361.45926 
L 141.091829 360.782324 
L 144.144874 359.45372 
L 147.197919 358.176823 
L 149.233282 357.688067 
L 150.250964 357.614581 
L 151.268645 357.666789 
L 153.304009 358.128963 
L 155.339372 358.954804 
L 160.42778 361.297441 
L 162.463143 361.951135 
L 164.498507 362.381621 
L 167.551552 362.70742 
L 170.604597 362.816883 
L 170.604597 362.816883 
" style="fill:none;stroke:#feffb3;stroke-linecap:round;stroke-width:1.5;"/>
   </g>
   <g id="patch_135">
    <path d="M 34.89675 362.857563 
L 34.89675 209.629562 
" style="fill:none;stroke:#ffffff;stroke-linecap:square;stroke-linejoin:miter;stroke-width:1.25;"/>
   </g>
   <g id="patch_136">
    <path d="M 34.89675 362.857563 
L 177.066875 362.857563 
" style="fill:none;stroke:#ffffff;stroke-linecap:square;stroke-linejoin:miter;stroke-width:1.25;"/>
   </g>
   <g id="text_26">
    <g id="patch_137">
     <path d="M 70.439281 312.718119 
L 152.170844 312.718119 
Q 156.370844 312.718119 156.370844 308.518119 
L 156.370844 279.291806 
Q 156.370844 275.091806 152.170844 275.091806 
L 70.439281 275.091806 
Q 66.239281 275.091806 66.239281 279.291806 
L 66.239281 308.518119 
Q 66.239281 312.718119 70.439281 312.718119 
z
" style="fill:#f5deb3;opacity:0.5;stroke:#ffffff;stroke-linejoin:miter;"/>
    </g>
    <!-- lss pwr: 1.0 -->
    <g style="fill:#ffffff;" transform="translate(70.439281 289.929619)scale(0.14 -0.14)">
     <use xlink:href="#DejaVuSans-108"/>
     <use x="27.783203" xlink:href="#DejaVuSans-115"/>
     <use x="79.882812" xlink:href="#DejaVuSans-115"/>
     <use x="131.982422" xlink:href="#DejaVuSans-32"/>
     <use x="163.769531" xlink:href="#DejaVuSans-112"/>
     <use x="227.246094" xlink:href="#DejaVuSans-119"/>
     <use x="309.033203" xlink:href="#DejaVuSans-114"/>
     <use x="350.130859" xlink:href="#DejaVuSans-58"/>
     <use x="383.822266" xlink:href="#DejaVuSans-32"/>
     <use x="415.609375" xlink:href="#DejaVuSans-49"/>
     <use x="479.232422" xlink:href="#DejaVuSans-46"/>
     <use x="511.019531" xlink:href="#DejaVuSans-48"/>
    </g>
    <!-- lsa pwr: 0.0 -->
    <g style="fill:#ffffff;" transform="translate(70.439281 305.606556)scale(0.14 -0.14)">
     <use xlink:href="#DejaVuSans-108"/>
     <use x="27.783203" xlink:href="#DejaVuSans-115"/>
     <use x="79.882812" xlink:href="#DejaVuSans-97"/>
     <use x="141.162109" xlink:href="#DejaVuSans-32"/>
     <use x="172.949219" xlink:href="#DejaVuSans-112"/>
     <use x="236.425781" xlink:href="#DejaVuSans-119"/>
     <use x="318.212891" xlink:href="#DejaVuSans-114"/>
     <use x="359.310547" xlink:href="#DejaVuSans-58"/>
     <use x="393.001953" xlink:href="#DejaVuSans-32"/>
     <use x="424.789062" xlink:href="#DejaVuSans-48"/>
     <use x="488.412109" xlink:href="#DejaVuSans-46"/>
     <use x="520.199219" xlink:href="#DejaVuSans-48"/>
    </g>
   </g>
  </g>
  <g id="axes_4">
   <g id="patch_138">
    <path d="M 242.47275 362.857563 
L 384.642875 362.857563 
L 384.642875 209.629562 
L 242.47275 209.629562 
z
" style="fill:#363636;"/>
   </g>
   <g id="matplotlib.axis_7">
    <g id="xtick_10">
     <g id="text_27">
      <!-- 0.0 -->
      <g style="fill:#ffffff;" transform="translate(252.159199 383.223328)scale(0.143 -0.143)">
       <use xlink:href="#DejaVuSans-48"/>
       <use x="63.623047" xlink:href="#DejaVuSans-46"/>
       <use x="95.410156" xlink:href="#DejaVuSans-48"/>
      </g>
     </g>
    </g>
    <g id="xtick_11">
     <g id="text_28">
      <!-- 0.5 -->
      <g style="fill:#ffffff;" transform="translate(300.131314 383.223328)scale(0.143 -0.143)">
       <use xlink:href="#DejaVuSans-48"/>
       <use x="63.623047" xlink:href="#DejaVuSans-46"/>
       <use x="95.410156" xlink:href="#DejaVuSans-53"/>
      </g>
     </g>
    </g>
    <g id="xtick_12">
     <g id="text_29">
      <!-- 1.0 -->
      <g style="fill:#ffffff;" transform="translate(348.103429 383.223328)scale(0.143 -0.143)">
       <use xlink:href="#DejaVuSans-49"/>
       <use x="63.623047" xlink:href="#DejaVuSans-46"/>
       <use x="95.410156" xlink:href="#DejaVuSans-48"/>
      </g>
     </g>
    </g>
    <g id="text_30">
     <!-- p value -->
     <g style="fill:#ffffff;" transform="translate(284.820906 402.050844)scale(0.156 -0.156)">
      <use xlink:href="#DejaVuSans-112"/>
      <use x="63.476562" xlink:href="#DejaVuSans-32"/>
      <use x="95.263672" xlink:href="#DejaVuSans-118"/>
      <use x="154.443359" xlink:href="#DejaVuSans-97"/>
      <use x="215.722656" xlink:href="#DejaVuSans-108"/>
      <use x="243.505859" xlink:href="#DejaVuSans-117"/>
      <use x="306.884766" xlink:href="#DejaVuSans-101"/>
     </g>
    </g>
   </g>
   <g id="matplotlib.axis_8">
    <g id="ytick_15">
     <g id="text_31">
      <!-- 0 -->
      <g style="fill:#ffffff;" transform="translate(223.874375 368.290445)scale(0.143 -0.143)">
       <use xlink:href="#DejaVuSans-48"/>
      </g>
     </g>
    </g>
    <g id="ytick_16">
     <g id="text_32">
      <!-- 5 -->
      <g style="fill:#ffffff;" transform="translate(223.874375 331.807735)scale(0.143 -0.143)">
       <use xlink:href="#DejaVuSans-53"/>
      </g>
     </g>
    </g>
    <g id="ytick_17">
     <g id="text_33">
      <!-- 10 -->
      <g style="fill:#ffffff;" transform="translate(214.776 295.325025)scale(0.143 -0.143)">
       <use xlink:href="#DejaVuSans-49"/>
       <use x="63.623047" xlink:href="#DejaVuSans-48"/>
      </g>
     </g>
    </g>
    <g id="ytick_18">
     <g id="text_34">
      <!-- 15 -->
      <g style="fill:#ffffff;" transform="translate(214.776 258.842314)scale(0.143 -0.143)">
       <use xlink:href="#DejaVuSans-49"/>
       <use x="63.623047" xlink:href="#DejaVuSans-53"/>
      </g>
     </g>
    </g>
    <g id="ytick_19">
     <g id="text_35">
      <!-- 20 -->
      <g style="fill:#ffffff;" transform="translate(214.776 222.359604)scale(0.143 -0.143)">
       <use xlink:href="#DejaVuSans-50"/>
       <use x="63.623047" xlink:href="#DejaVuSans-48"/>
      </g>
     </g>
    </g>
   </g>
   <g id="patch_139">
    <path clip-path="url(#p415ceacdf1)" d="M 263.529933 362.857563 
L 268.102137 362.857563 
L 268.102137 216.926134 
L 263.529933 216.926134 
z
" style="fill:#8dd3c7;opacity:0.4;stroke:#ffffff;stroke-linejoin:miter;"/>
   </g>
   <g id="patch_140">
    <path clip-path="url(#p415ceacdf1)" d="M 268.102137 362.857563 
L 272.674341 362.857563 
L 272.674341 359.106309 
L 268.102137 359.106309 
z
" style="fill:#8dd3c7;opacity:0.4;stroke:#ffffff;stroke-linejoin:miter;"/>
   </g>
   <g id="patch_141">
    <path clip-path="url(#p415ceacdf1)" d="M 272.674341 362.857563 
L 277.246545 362.857563 
L 277.246545 361.326438 
L 272.674341 361.326438 
z
" style="fill:#8dd3c7;opacity:0.4;stroke:#ffffff;stroke-linejoin:miter;"/>
   </g>
   <g id="patch_142">
    <path clip-path="url(#p415ceacdf1)" d="M 277.246545 362.857563 
L 281.818749 362.857563 
L 281.818749 362.183868 
L 277.246545 362.183868 
z
" style="fill:#8dd3c7;opacity:0.4;stroke:#ffffff;stroke-linejoin:miter;"/>
   </g>
   <g id="patch_143">
    <path clip-path="url(#p415ceacdf1)" d="M 281.818749 362.857563 
L 286.390953 362.857563 
L 286.390953 362.45947 
L 281.818749 362.45947 
z
" style="fill:#8dd3c7;opacity:0.4;stroke:#ffffff;stroke-linejoin:miter;"/>
   </g>
   <g id="patch_144">
    <path clip-path="url(#p415ceacdf1)" d="M 286.390953 362.857563 
L 290.963157 362.857563 
L 290.963157 362.551338 
L 286.390953 362.551338 
z
" style="fill:#8dd3c7;opacity:0.4;stroke:#ffffff;stroke-linejoin:miter;"/>
   </g>
   <g id="patch_145">
    <path clip-path="url(#p415ceacdf1)" d="M 290.963157 362.857563 
L 295.535361 362.857563 
L 295.535361 362.673828 
L 290.963157 362.673828 
z
" style="fill:#8dd3c7;opacity:0.4;stroke:#ffffff;stroke-linejoin:miter;"/>
   </g>
   <g id="patch_146">
    <path clip-path="url(#p415ceacdf1)" d="M 295.535361 362.857563 
L 300.107564 362.857563 
L 300.107564 362.796318 
L 295.535361 362.796318 
z
" style="fill:#8dd3c7;opacity:0.4;stroke:#ffffff;stroke-linejoin:miter;"/>
   </g>
   <g id="patch_147">
    <path clip-path="url(#p415ceacdf1)" d="M 300.107564 362.857563 
L 304.679768 362.857563 
L 304.679768 362.750384 
L 300.107564 362.750384 
z
" style="fill:#8dd3c7;opacity:0.4;stroke:#ffffff;stroke-linejoin:miter;"/>
   </g>
   <g id="patch_148">
    <path clip-path="url(#p415ceacdf1)" d="M 304.679768 362.857563 
L 309.251972 362.857563 
L 309.251972 362.82694 
L 304.679768 362.82694 
z
" style="fill:#8dd3c7;opacity:0.4;stroke:#ffffff;stroke-linejoin:miter;"/>
   </g>
   <g id="patch_149">
    <path clip-path="url(#p415ceacdf1)" d="M 309.251972 362.857563 
L 313.824176 362.857563 
L 313.824176 362.811629 
L 309.251972 362.811629 
z
" style="fill:#8dd3c7;opacity:0.4;stroke:#ffffff;stroke-linejoin:miter;"/>
   </g>
   <g id="patch_150">
    <path clip-path="url(#p415ceacdf1)" d="M 313.824176 362.857563 
L 318.39638 362.857563 
L 318.39638 362.842251 
L 313.824176 362.842251 
z
" style="fill:#8dd3c7;opacity:0.4;stroke:#ffffff;stroke-linejoin:miter;"/>
   </g>
   <g id="patch_151">
    <path clip-path="url(#p415ceacdf1)" d="M 318.39638 362.857563 
L 322.968584 362.857563 
L 322.968584 362.82694 
L 318.39638 362.82694 
z
" style="fill:#8dd3c7;opacity:0.4;stroke:#ffffff;stroke-linejoin:miter;"/>
   </g>
   <g id="patch_152">
    <path clip-path="url(#p415ceacdf1)" d="M 322.968584 362.857563 
L 327.540788 362.857563 
L 327.540788 362.857563 
L 322.968584 362.857563 
z
" style="fill:#8dd3c7;opacity:0.4;stroke:#ffffff;stroke-linejoin:miter;"/>
   </g>
   <g id="patch_153">
    <path clip-path="url(#p415ceacdf1)" d="M 327.540788 362.857563 
L 332.112992 362.857563 
L 332.112992 362.857563 
L 327.540788 362.857563 
z
" style="fill:#8dd3c7;opacity:0.4;stroke:#ffffff;stroke-linejoin:miter;"/>
   </g>
   <g id="patch_154">
    <path clip-path="url(#p415ceacdf1)" d="M 332.112992 362.857563 
L 336.685196 362.857563 
L 336.685196 362.842251 
L 332.112992 362.842251 
z
" style="fill:#8dd3c7;opacity:0.4;stroke:#ffffff;stroke-linejoin:miter;"/>
   </g>
   <g id="patch_155">
    <path clip-path="url(#p415ceacdf1)" d="M 336.685196 362.857563 
L 341.257399 362.857563 
L 341.257399 362.857563 
L 336.685196 362.857563 
z
" style="fill:#8dd3c7;opacity:0.4;stroke:#ffffff;stroke-linejoin:miter;"/>
   </g>
   <g id="patch_156">
    <path clip-path="url(#p415ceacdf1)" d="M 341.257399 362.857563 
L 345.829603 362.857563 
L 345.829603 362.857563 
L 341.257399 362.857563 
z
" style="fill:#8dd3c7;opacity:0.4;stroke:#ffffff;stroke-linejoin:miter;"/>
   </g>
   <g id="patch_157">
    <path clip-path="url(#p415ceacdf1)" d="M 345.829603 362.857563 
L 350.401807 362.857563 
L 350.401807 362.857563 
L 345.829603 362.857563 
z
" style="fill:#8dd3c7;opacity:0.4;stroke:#ffffff;stroke-linejoin:miter;"/>
   </g>
   <g id="patch_158">
    <path clip-path="url(#p415ceacdf1)" d="M 350.401807 362.857563 
L 354.974011 362.857563 
L 354.974011 362.82694 
L 350.401807 362.82694 
z
" style="fill:#8dd3c7;opacity:0.4;stroke:#ffffff;stroke-linejoin:miter;"/>
   </g>
   <g id="patch_159">
    <path clip-path="url(#p415ceacdf1)" d="M 263.583503 362.857563 
L 268.377424 362.857563 
L 268.377424 360.039164 
L 263.583503 360.039164 
z
" style="fill:#feffb3;opacity:0.4;stroke:#ffffff;stroke-linejoin:miter;"/>
   </g>
   <g id="patch_160">
    <path clip-path="url(#p415ceacdf1)" d="M 268.377424 362.857563 
L 273.171345 362.857563 
L 273.171345 356.30077 
L 268.377424 356.30077 
z
" style="fill:#feffb3;opacity:0.4;stroke:#ffffff;stroke-linejoin:miter;"/>
   </g>
   <g id="patch_161">
    <path clip-path="url(#p415ceacdf1)" d="M 273.171345 362.857563 
L 277.965265 362.857563 
L 277.965265 355.87728 
L 273.171345 355.87728 
z
" style="fill:#feffb3;opacity:0.4;stroke:#ffffff;stroke-linejoin:miter;"/>
   </g>
   <g id="patch_162">
    <path clip-path="url(#p415ceacdf1)" d="M 277.965265 362.857563 
L 282.759186 362.857563 
L 282.759186 355.117919 
L 277.965265 355.117919 
z
" style="fill:#feffb3;opacity:0.4;stroke:#ffffff;stroke-linejoin:miter;"/>
   </g>
   <g id="patch_163">
    <path clip-path="url(#p415ceacdf1)" d="M 282.759186 362.857563 
L 287.553106 362.857563 
L 287.553106 355.906486 
L 282.759186 355.906486 
z
" style="fill:#feffb3;opacity:0.4;stroke:#ffffff;stroke-linejoin:miter;"/>
   </g>
   <g id="patch_164">
    <path clip-path="url(#p415ceacdf1)" d="M 287.553106 362.857563 
L 292.347027 362.857563 
L 292.347027 355.497599 
L 287.553106 355.497599 
z
" style="fill:#feffb3;opacity:0.4;stroke:#ffffff;stroke-linejoin:miter;"/>
   </g>
   <g id="patch_165">
    <path clip-path="url(#p415ceacdf1)" d="M 292.347027 362.857563 
L 297.140948 362.857563 
L 297.140948 355.468393 
L 292.347027 355.468393 
z
" style="fill:#feffb3;opacity:0.4;stroke:#ffffff;stroke-linejoin:miter;"/>
   </g>
   <g id="patch_166">
    <path clip-path="url(#p415ceacdf1)" d="M 297.140948 362.857563 
L 301.934868 362.857563 
L 301.934868 355.161728 
L 297.140948 355.161728 
z
" style="fill:#feffb3;opacity:0.4;stroke:#ffffff;stroke-linejoin:miter;"/>
   </g>
   <g id="patch_167">
    <path clip-path="url(#p415ceacdf1)" d="M 301.934868 362.857563 
L 306.728789 362.857563 
L 306.728789 355.87728 
L 301.934868 355.87728 
z
" style="fill:#feffb3;opacity:0.4;stroke:#ffffff;stroke-linejoin:miter;"/>
   </g>
   <g id="patch_168">
    <path clip-path="url(#p415ceacdf1)" d="M 306.728789 362.857563 
L 311.522709 362.857563 
L 311.522709 355.687439 
L 306.728789 355.687439 
z
" style="fill:#feffb3;opacity:0.4;stroke:#ffffff;stroke-linejoin:miter;"/>
   </g>
   <g id="patch_169">
    <path clip-path="url(#p415ceacdf1)" d="M 311.522709 362.857563 
L 316.31663 362.857563 
L 316.31663 355.307759 
L 311.522709 355.307759 
z
" style="fill:#feffb3;opacity:0.4;stroke:#ffffff;stroke-linejoin:miter;"/>
   </g>
   <g id="patch_170">
    <path clip-path="url(#p415ceacdf1)" d="M 316.31663 362.857563 
L 321.110551 362.857563 
L 321.110551 355.26395 
L 316.31663 355.26395 
z
" style="fill:#feffb3;opacity:0.4;stroke:#ffffff;stroke-linejoin:miter;"/>
   </g>
   <g id="patch_171">
    <path clip-path="url(#p415ceacdf1)" d="M 321.110551 362.857563 
L 325.904471 362.857563 
L 325.904471 355.716646 
L 321.110551 355.716646 
z
" style="fill:#feffb3;opacity:0.4;stroke:#ffffff;stroke-linejoin:miter;"/>
   </g>
   <g id="patch_172">
    <path clip-path="url(#p415ceacdf1)" d="M 325.904471 362.857563 
L 330.698392 362.857563 
L 330.698392 355.585218 
L 325.904471 355.585218 
z
" style="fill:#feffb3;opacity:0.4;stroke:#ffffff;stroke-linejoin:miter;"/>
   </g>
   <g id="patch_173">
    <path clip-path="url(#p415ceacdf1)" d="M 330.698392 362.857563 
L 335.492313 362.857563 
L 335.492313 354.957284 
L 330.698392 354.957284 
z
" style="fill:#feffb3;opacity:0.4;stroke:#ffffff;stroke-linejoin:miter;"/>
   </g>
   <g id="patch_174">
    <path clip-path="url(#p415ceacdf1)" d="M 335.492313 362.857563 
L 340.286233 362.857563 
L 340.286233 355.293156 
L 335.492313 355.293156 
z
" style="fill:#feffb3;opacity:0.4;stroke:#ffffff;stroke-linejoin:miter;"/>
   </g>
   <g id="patch_175">
    <path clip-path="url(#p415ceacdf1)" d="M 340.286233 362.857563 
L 345.080154 362.857563 
L 345.080154 355.672836 
L 340.286233 355.672836 
z
" style="fill:#feffb3;opacity:0.4;stroke:#ffffff;stroke-linejoin:miter;"/>
   </g>
   <g id="patch_176">
    <path clip-path="url(#p415ceacdf1)" d="M 345.080154 362.857563 
L 349.874074 362.857563 
L 349.874074 355.205537 
L 345.080154 355.205537 
z
" style="fill:#feffb3;opacity:0.4;stroke:#ffffff;stroke-linejoin:miter;"/>
   </g>
   <g id="patch_177">
    <path clip-path="url(#p415ceacdf1)" d="M 349.874074 362.857563 
L 354.667995 362.857563 
L 354.667995 355.950295 
L 349.874074 355.950295 
z
" style="fill:#feffb3;opacity:0.4;stroke:#ffffff;stroke-linejoin:miter;"/>
   </g>
   <g id="patch_178">
    <path clip-path="url(#p415ceacdf1)" d="M 354.667995 362.857563 
L 359.461916 362.857563 
L 359.461916 351.233493 
L 354.667995 351.233493 
z
" style="fill:#feffb3;opacity:0.4;stroke:#ffffff;stroke-linejoin:miter;"/>
   </g>
   <g id="line2d_7">
    <path clip-path="url(#p415ceacdf1)" d="M 263.384119 360.861065 
L 264.106448 362.857563 
L 264.828776 341.27919 
L 265.551105 335.718851 
L 266.273433 346.612782 
L 266.995761 351.409418 
L 267.71809 354.061141 
L 268.440418 357.33941 
L 269.162747 356.572751 
L 269.885075 359.522686 
L 270.607403 359.465711 
L 271.329732 360.901479 
L 272.05206 360.178996 
L 272.774388 361.144121 
L 273.496717 361.057706 
L 274.219045 360.738535 
L 274.941374 361.479007 
L 275.663702 361.840286 
L 276.38603 361.170322 
L 277.108359 362.246975 
L 277.830687 362.21436 
L 278.553016 362.042963 
L 279.275344 362.792797 
L 279.997672 361.620666 
L 280.720001 362.383345 
L 281.442329 361.887583 
L 282.164658 362.540153 
L 284.331643 362.446543 
L 285.053971 362.118714 
L 285.7763 362.723876 
L 286.498628 362.688727 
L 287.220956 362.341727 
L 287.943285 362.604742 
L 288.665613 362.668308 
L 289.387941 362.448538 
L 290.11027 362.794965 
L 290.832598 362.448329 
L 292.277255 362.673159 
L 294.44424 362.666123 
L 295.166569 362.796781 
L 295.888897 362.650677 
L 298.055882 362.833193 
L 298.778211 362.857563 
L 299.500539 362.75048 
L 300.222867 362.76025 
L 300.945196 362.467963 
L 301.667524 362.857563 
L 302.389852 362.704471 
L 303.112181 362.857339 
L 304.556838 362.788021 
L 306.001494 362.800687 
L 340.673257 362.857563 
L 342.840242 362.804823 
L 343.562571 362.857563 
L 344.284899 362.793414 
L 345.007228 362.857563 
L 345.729556 362.777915 
L 346.451884 362.857563 
L 347.174213 362.756036 
L 347.896541 362.857563 
L 348.61887 362.723725 
L 349.341198 362.857563 
L 350.063526 362.673207 
L 350.785855 362.857563 
L 351.508183 362.587753 
L 352.230511 362.857563 
L 352.95284 362.404237 
L 353.675168 362.857563 
L 354.397497 362.064034 
L 355.119825 362.857563 
L 355.119825 362.857563 
" style="fill:none;stroke:#8dd3c7;stroke-linecap:round;stroke-width:1.5;"/>
   </g>
   <g id="line2d_8">
    <path clip-path="url(#p415ceacdf1)" d="M 249.829188 362.845011 
L 254.686945 362.771579 
L 257.6016 362.535006 
L 259.544703 362.199395 
L 261.487806 361.66944 
L 263.430909 360.936519 
L 266.345563 359.555711 
L 270.23177 357.678034 
L 272.174873 356.929785 
L 274.117976 356.365575 
L 276.061079 355.977099 
L 278.975733 355.664771 
L 282.861939 355.588075 
L 289.6628 355.564047 
L 298.406764 355.405424 
L 310.065382 355.580437 
L 317.837794 355.421702 
L 330.467964 355.387967 
L 336.297273 355.269981 
L 346.98434 355.342246 
L 353.785201 355.056552 
L 354.756752 355.216559 
L 355.728304 355.498347 
L 356.699855 355.913558 
L 358.642958 357.117825 
L 363.500716 360.782734 
L 365.443819 361.780011 
L 367.386922 362.377214 
L 369.330025 362.674525 
L 372.24468 362.824727 
L 373.216231 362.839007 
L 373.216231 362.839007 
" style="fill:none;stroke:#feffb3;stroke-linecap:round;stroke-width:1.5;"/>
   </g>
   <g id="patch_179">
    <path d="M 242.47275 362.857563 
L 242.47275 209.629562 
" style="fill:none;stroke:#ffffff;stroke-linecap:square;stroke-linejoin:miter;stroke-width:1.25;"/>
   </g>
   <g id="patch_180">
    <path d="M 242.47275 362.857563 
L 384.642875 362.857563 
" style="fill:none;stroke:#ffffff;stroke-linecap:square;stroke-linejoin:miter;stroke-width:1.25;"/>
   </g>
   <g id="text_36">
    <g id="patch_181">
     <path d="M 383.430278 230.62225 
L 383.430277 341.864875 
L 406.640152 341.864875 
L 406.640153 230.62225 
z
" style="fill:#363636;stroke:#363636;stroke-linejoin:miter;"/>
    </g>
    <!-- # Trials = 60 -->
    <g style="fill:#ffffff;" transform="translate(390.73059 234.67825)rotate(-270)scale(0.156 -0.156)">
     <use xlink:href="#DejaVuSans-35"/>
     <use x="83.789062" xlink:href="#DejaVuSans-32"/>
     <use x="115.576172" xlink:href="#DejaVuSans-84"/>
     <use x="176.441406" xlink:href="#DejaVuSans-114"/>
     <use x="217.554688" xlink:href="#DejaVuSans-105"/>
     <use x="245.337891" xlink:href="#DejaVuSans-97"/>
     <use x="306.617188" xlink:href="#DejaVuSans-108"/>
     <use x="334.400391" xlink:href="#DejaVuSans-115"/>
     <use x="386.5" xlink:href="#DejaVuSans-32"/>
     <use x="418.287109" xlink:href="#DejaVuSans-61"/>
     <use x="502.076172" xlink:href="#DejaVuSans-32"/>
     <use x="533.863281" xlink:href="#DejaVuSans-54"/>
     <use x="597.486328" xlink:href="#DejaVuSans-48"/>
    </g>
   </g>
   <g id="text_37">
    <g id="patch_182">
     <path d="M 278.015281 312.718119 
L 368.654344 312.718119 
Q 372.854344 312.718119 372.854344 308.518119 
L 372.854344 279.291806 
Q 372.854344 275.091806 368.654344 275.091806 
L 278.015281 275.091806 
Q 273.815281 275.091806 273.815281 279.291806 
L 273.815281 308.518119 
Q 273.815281 312.718119 278.015281 312.718119 
z
" style="fill:#f5deb3;opacity:0.5;stroke:#ffffff;stroke-linejoin:miter;"/>
    </g>
    <!-- lss pwr: 0.96 -->
    <g style="fill:#ffffff;" transform="translate(278.015281 289.929619)scale(0.14 -0.14)">
     <use xlink:href="#DejaVuSans-108"/>
     <use x="27.783203" xlink:href="#DejaVuSans-115"/>
     <use x="79.882812" xlink:href="#DejaVuSans-115"/>
     <use x="131.982422" xlink:href="#DejaVuSans-32"/>
     <use x="163.769531" xlink:href="#DejaVuSans-112"/>
     <use x="227.246094" xlink:href="#DejaVuSans-119"/>
     <use x="309.033203" xlink:href="#DejaVuSans-114"/>
     <use x="350.130859" xlink:href="#DejaVuSans-58"/>
     <use x="383.822266" xlink:href="#DejaVuSans-32"/>
     <use x="415.609375" xlink:href="#DejaVuSans-48"/>
     <use x="479.232422" xlink:href="#DejaVuSans-46"/>
     <use x="511.019531" xlink:href="#DejaVuSans-57"/>
     <use x="574.642578" xlink:href="#DejaVuSans-54"/>
    </g>
    <!-- lsa pwr: 0.02 -->
    <g style="fill:#ffffff;" transform="translate(278.015281 305.606556)scale(0.14 -0.14)">
     <use xlink:href="#DejaVuSans-108"/>
     <use x="27.783203" xlink:href="#DejaVuSans-115"/>
     <use x="79.882812" xlink:href="#DejaVuSans-97"/>
     <use x="141.162109" xlink:href="#DejaVuSans-32"/>
     <use x="172.949219" xlink:href="#DejaVuSans-112"/>
     <use x="236.425781" xlink:href="#DejaVuSans-119"/>
     <use x="318.212891" xlink:href="#DejaVuSans-114"/>
     <use x="359.310547" xlink:href="#DejaVuSans-58"/>
     <use x="393.001953" xlink:href="#DejaVuSans-32"/>
     <use x="424.789062" xlink:href="#DejaVuSans-48"/>
     <use x="488.412109" xlink:href="#DejaVuSans-46"/>
     <use x="520.199219" xlink:href="#DejaVuSans-48"/>
     <use x="583.822266" xlink:href="#DejaVuSans-50"/>
    </g>
   </g>
  </g>
 </g>
 <defs>
  <clipPath id="p323b7a3376">
   <rect height="153.228" width="142.170125" x="34.89675" y="25.053562"/>
  </clipPath>
  <clipPath id="p44589ea122">
   <rect height="153.228" width="142.170125" x="242.47275" y="25.053562"/>
  </clipPath>
  <clipPath id="pa041c87e0b">
   <rect height="153.228" width="142.170125" x="34.89675" y="209.629562"/>
  </clipPath>
  <clipPath id="p415ceacdf1">
   <rect height="153.228" width="142.170125" x="242.47275" y="209.629562"/>
  </clipPath>
 </defs>
</svg>
